<?xml version="1.0" standalone="no"?>
<!DOCTYPE svg PUBLIC "-//W3C//DTD SVG 1.1//EN" "http://www.w3.org/Graphics/SVG/1.1/DTD/svg11.dtd" >
<svg xmlns="http://www.w3.org/2000/svg">
<metadata>Generated by IcoMoon</metadata>
<defs>
<font id="icons-light" horiz-adv-x="1024">
<font-face units-per-em="1024" ascent="960" descent="-64" />
<missing-glyph horiz-adv-x="1024" />
<glyph unicode="&#x20;" horiz-adv-x="512" d="" />
<glyph unicode="&#xe900;" glyph-name="home" d="M1024 369.556l-512 397.426-512-397.428v162.038l512 397.426 512-397.428zM896 384v-384h-256v256h-256v-256h-256v384l384 288z" />
<glyph unicode="&#xe901;" glyph-name="design_services" d="M692 446.667l68 68-160 160-68-68-176 178q-24 24-60 24t-60-24l-82-82q-24-24-24-60t24-60l176-176-202-204v-160h160l204 204 176-178q20-20 43-23t44 4 33 19l82 82q24 24 24 60t-24 60zM392 466.667l-176 176 80 80 54-54-50-50 60-60 50 50 62-62zM728 130.667l-176 176 80 80 62-62-50-50 60-60 50 50 54-54zM884 638.667q12 12 12 30t-12 30l-100 100q-16 14-34 11t-26-11l-78-78 160-160z" />
<glyph unicode="&#xe902;" glyph-name="options" d="M512 648c-110.457 0-200-89.543-200-200s89.543-200 200-200c110.457 0 200 89.543 200 200v0c0 110.457-89.543 200-200 200v0zM512 296c-83.947 0-152 68.053-152 152s68.053 152 152 152c83.947 0 152-68.053 152-152v0c0-83.947-68.053-152-152-152v0zM968 576h-71.44c-3.478 0.027-6.426 2.269-7.503 5.384l-0.017 0.056c-5.608 15.915-11.010 28.727-17.039 41.179l1.039-2.379c-0.538 1.047-0.853 2.283-0.853 3.594 0 2.184 0.875 4.164 2.294 5.607l-0.001-0.001 50.48 50.56c10.135 10.134 16.404 24.135 16.404 39.6s-6.269 29.466-16.404 39.6l-101.84 101.76c-10.134 10.135-24.135 16.404-39.6 16.404s-29.466-6.269-39.6-16.404l-50.48-50.48c-1.442-1.418-3.422-2.293-5.606-2.293-1.311 0-2.547 0.315-3.639 0.874l0.045-0.021c-10.079 4.995-22.892 10.396-36.025 15.127l-2.775 0.873c-3.171 1.094-5.413 4.042-5.44 7.517v71.443c0 30.928-25.072 56-56 56v0h-144c-30.928 0-56-25.072-56-56v0-71.44c-0.027-3.478-2.269-6.426-5.384-7.503l-0.056-0.017c-15.915-5.608-28.727-11.010-41.179-17.039l2.379 1.039c-1.047-0.538-2.283-0.853-3.594-0.853-2.184 0-4.164 0.875-5.607 2.294l0.001-0.001-50.56 50.48c-10.134 10.135-24.135 16.404-39.6 16.404s-29.466-6.269-39.6-16.404l-101.76-101.84c-10.135-10.134-16.404-24.135-16.404-39.6s6.269-29.466 16.404-39.6l50.48-50.48c1.418-1.442 2.293-3.422 2.293-5.606 0-1.311-0.315-2.547-0.874-3.639l0.021 0.045c-4.995-10.079-10.396-22.892-15.127-36.025l-0.873-2.775c-1.094-3.171-4.042-5.413-7.517-5.44h-71.443c-30.928 0-56-25.072-56-56v0-144c0-30.928 25.072-56 56-56v0h71.44c3.478-0.027 6.426-2.269 7.503-5.384l0.017-0.056c5.608-15.915 11.010-28.727 17.039-41.179l-1.039 2.379c0.538-1.047 0.853-2.283 0.853-3.594 0-2.184-0.875-4.164-2.294-5.607l0.001 0.001-50.48-50.56c-10.135-10.134-16.404-24.135-16.404-39.6s6.269-29.466 16.404-39.6l101.84-101.84c10.134-10.135 24.135-16.404 39.6-16.404s29.466 6.269 39.6 16.404l50.48 50.48c1.442 1.418 3.422 2.293 5.606 2.293 1.311 0 2.547-0.315 3.639-0.874l-0.045 0.021c10.079-4.995 22.892-10.396 36.025-15.127l2.775-0.873c3.171-1.094 5.413-4.042 5.44-7.517v-71.363c0-30.928 25.072-56 56-56v0h144c30.928 0 56 25.072 56 56v0 71.44c0.027 3.478 2.269 6.426 5.384 7.503l0.056 0.017c15.915 5.608 28.727 11.010 41.179 17.039l-2.379-1.039c1.047 0.538 2.283 0.853 3.594 0.853 2.184 0 4.164-0.875 5.607-2.294l-0.001 0.001 50.56-50.48c10.134-10.135 24.135-16.404 39.6-16.404s29.466 6.269 39.6 16.404l101.84 101.84c10.135 10.134 16.404 24.135 16.404 39.6s-6.269 29.466-16.404 39.6l-50.48 50.48c-1.418 1.442-2.293 3.422-2.293 5.606 0 1.311 0.315 2.547 0.874 3.639l-0.021-0.045c4.995 10.079 10.396 22.892 15.127 36.025l0.873 2.775c1.094 3.171 4.042 5.413 7.517 5.44h71.363c30.928 0 56 25.072 56 56v0 144c0 30.928-25.072 56-56 56v0zM976 376c0-4.418-3.582-8-8-8v0h-71.44c-24.281-0.028-44.94-15.505-52.678-37.129l-0.122-0.391c-4.938-13.981-9.691-25.234-14.995-36.17l0.915 2.090c-3.532-7.131-5.598-15.527-5.598-24.406 0-15.462 6.266-29.46 16.398-39.594l50.48-50.48c1.438-1.446 2.326-3.439 2.326-5.64s-0.889-4.194-2.327-5.64v0l-101.76-101.68c-1.446-1.438-3.439-2.326-5.64-2.326s-4.194 0.889-5.64 2.327v0l-50.48 50.48c-10.134 10.132-24.132 16.398-39.594 16.398-8.879 0-17.275-2.066-24.734-5.744l0.328 0.146c-8.87-4.393-20.151-9.147-31.713-13.31l-2.447-0.77c-21.981-7.886-37.424-28.537-37.44-52.798v-71.362c0-4.418-3.582-8-8-8v0h-143.84c-4.418 0-8 3.582-8 8v0 71.44c-0.028 24.281-15.505 44.94-37.129 52.678l-0.391 0.122c-13.981 4.938-25.234 9.691-36.17 14.995l2.090-0.915c-7.131 3.532-15.527 5.598-24.406 5.598-15.462 0-29.46-6.266-39.594-16.398l-50.48-50.48c-1.446-1.438-3.439-2.326-5.64-2.326s-4.194 0.889-5.64 2.327v0l-101.68 101.76c-1.438 1.446-2.326 3.439-2.326 5.64s0.889 4.194 2.327 5.64v0l50.48 50.48c10.132 10.134 16.398 24.132 16.398 39.594 0 8.879-2.066 17.275-5.744 24.734l0.146-0.328c-4.393 8.87-9.147 20.151-13.31 31.713l-0.77 2.447c-7.928 21.89-28.527 37.254-52.717 37.28h-71.443c-4.418 0-8 3.582-8 8v0 144c0 4.418 3.582 8 8 8v0h71.44c24.281 0.028 44.94 15.505 52.678 37.129l0.122 0.391c4.938 13.981 9.691 25.234 14.995 36.17l-0.915-2.090c3.532 7.131 5.598 15.527 5.598 24.406 0 15.462-6.266 29.46-16.398 39.594l-50.48 50.48c-1.438 1.446-2.326 3.439-2.326 5.64s0.889 4.194 2.327 5.64v0l101.76 101.68c1.446 1.438 3.439 2.326 5.64 2.326s4.194-0.889 5.64-2.327v0l50.48-50.48c10.134-10.132 24.132-16.398 39.594-16.398 8.879 0 17.275 2.066 24.734 5.744l-0.328-0.146c8.87 4.393 20.151 9.147 31.713 13.31l2.447 0.77c21.89 7.928 37.254 28.527 37.28 52.717v71.443c0 4.418 3.582 8 8 8v0h144c4.418 0 8-3.582 8-8v0-71.44c0.028-24.281 15.505-44.94 37.129-52.678l0.391-0.122c13.981-4.938 25.234-9.691 36.17-14.995l-2.090 0.915c7.131-3.532 15.527-5.598 24.406-5.598 15.462 0 29.46 6.266 39.594 16.398l50.48 50.48c1.446 1.438 3.439 2.326 5.64 2.326s4.194-0.889 5.64-2.327v0l101.84-101.84c1.438-1.446 2.326-3.439 2.326-5.64s-0.889-4.194-2.327-5.64v0l-50.48-50.48c-10.132-10.134-16.398-24.132-16.398-39.594 0-8.879 2.066-17.275 5.744-24.734l-0.146 0.328c4.393-8.87 9.147-20.151 13.31-31.713l0.77-2.447c7.886-21.981 28.537-37.424 52.798-37.44h71.202c4.418 0 8-3.582 8-8v0z" />
<glyph unicode="&#xe903;" glyph-name="bulb-creative-idea-light-thunder_108969" d="M752 784c-0.019 0-0.042 0-0.065 0-52.495 0-100.053-21.142-134.622-55.375l0.015 0.015c-0.857 0.761-1.817 1.44-2.847 2.007l-0.081 0.041c-30.16 13.508-65.365 21.376-102.409 21.376-131.288 0-239.494-98.83-254.278-226.152l-0.113-1.192c-1.070-8.746-1.68-18.871-1.68-29.14 0-52.133 15.738-100.591 42.722-140.881l-0.578 0.916c34.748-50.111 62.281-108.405 79.377-171.008l0.927-3.984 5.632-22.56v-62.064c0.055-44.161 35.839-79.945 79.995-80h112.005c44.161 0.055 79.945 35.839 80 79.995v62.693l1.472 8.816c10.99 71.58 35.598 135.738 71.189 192.287l-1.221-2.079c7.785 12.12 15.018 26.089 20.938 40.729l0.614 1.719c1.008 0 1.984-0.16 3.008-0.16 106.039 0 192 85.961 192 192s-85.961 192-192 192v0zM576 48h-112c-20.769 0.026-38.451 13.212-45.158 31.665l-0.106 0.335h202.528c-6.813-18.788-24.495-31.974-45.261-32h-0.003zM624 112h-208v32h208zM700.528 375.024c-36.084-56.997-62.095-124.074-73.676-195.98l-0.404-3.044h-98.448v128.704c35.664 2.973 67.948 15.351 94.982 34.618l-0.582-0.394c4.328 2.909 7.139 7.787 7.139 13.322 0 8.837-7.163 16-16 16-3.607 0-6.935-1.194-9.611-3.207l0.041 0.030c-25.512-18.184-57.318-29.072-91.668-29.072-0.105 0-0.211 0-0.316 0h0.016c-10.291 0.004-20.355 0.964-30.111 2.797l1.007-0.157c-0.871 0.168-1.872 0.264-2.896 0.264-8.837 0-16-7.164-16-16 0-7.813 5.6-14.318 13.005-15.72l0.1-0.016c6.24-1.136 12.56-1.984 18.896-2.512v-128.656h-83.504l-3.104 12.368c-18.937 70.33-47.947 131.915-85.899 186.849l1.307-2.001c-23.093 34.449-36.856 76.842-36.856 122.45 0 9.015 0.538 17.904 1.583 26.637l-0.103-1.055c13.018 112.395 107.648 198.833 222.467 198.833 30.347 0 59.283-6.038 85.673-16.978l-1.485 0.545c-22.534-31.019-36.048-69.859-36.048-111.856 0-93.136 66.464-170.748 154.549-187.994l1.211-0.198c-4.994-11.159-10.091-20.535-15.804-29.48l0.54 0.904zM752 432c-88.366 0-160 71.634-160 160s71.634 160 160 160c88.366 0 160-71.634 160-160v0c-0.1-88.325-71.675-159.9-159.99-160h-0.010zM816 626h-27.872l18.272 57.2c0.467 1.435 0.737 3.086 0.737 4.8 0 8.831-7.155 15.991-15.984 16h-74.721c-8.242-0.004-15.026-6.239-15.898-14.249l-0.006-0.071-12.432-116.992c-0.056-0.504-0.088-1.088-0.088-1.68 0-8.834 7.159-15.996 15.992-16h19.008l-9.984-72.832c-0.099-0.67-0.156-1.443-0.156-2.23 0-8.837 7.163-16 16-16 5.536 0 10.415 2.811 13.288 7.085l0.036 0.057 87.104 130c1.699 2.502 2.712 5.589 2.712 8.912 0 8.837-7.163 16-16 16-0.003 0-0.005 0-0.008 0v0zM754.112 546.384l3.072 22.4c0.095 0.654 0.149 1.409 0.149 2.176 0 8.837-7.163 16-16 16-0.002 0-0.003 0-0.005 0h-19.536l9.040 85.040h38.4l-18.224-57.136c-0.467-1.435-0.737-3.086-0.737-4.8 0-8.831 7.155-15.991 15.984-16h19.793zM362.912 437.824c-6.908 17.225-10.914 37.193-10.914 58.096 0 88.382 71.626 160.036 159.998 160.080h0.004c8.837 0 16 7.163 16 16s-7.163 16-16 16v0c-106.054-0.073-191.999-86.064-191.999-192.128 0-25.077 4.804-49.032 13.543-70.994l-0.456 1.298c2.395-6.013 8.166-10.185 14.912-10.185 8.842 0 16.009 7.167 16.009 16.009 0 2.096-0.403 4.097-1.135 5.932l0.038-0.108zM439.28 353.44c-23.591 12.262-43.121 29.345-57.873 50.065l-0.335 0.495c-2.889 4.459-7.841 7.368-13.472 7.368-8.837 0-16-7.163-16-16 0-3.694 1.252-7.096 3.355-9.805l-0.027 0.036c18.091-25.437 41.507-45.92 68.723-60.117l1.069-0.507c2.112-1.119 4.617-1.776 7.276-1.776 0.001 0 0.003 0 0.004 0v0c0.010 0 0.021 0 0.032 0 8.837 0 16 7.163 16 16 0 6.186-3.51 11.551-8.647 14.214l-0.089 0.042zM528 800v64c0 8.837-7.163 16-16 16s-16-7.163-16-16v0-64c0-8.837 7.163-16 16-16s16 7.163 16 16v0zM240.464 767.536c-2.894-2.895-4.685-6.895-4.685-11.312s1.79-8.417 4.685-11.312l45.264-45.264c2.874-2.779 6.795-4.491 11.115-4.491 8.837 0 16 7.163 16 16 0 4.321-1.712 8.241-4.496 11.12l-45.26 45.26c-2.895 2.894-6.895 4.685-11.312 4.685s-8.417-1.79-11.312-4.685v0zM208 512h-64c-8.837 0-16-7.163-16-16s7.163-16 16-16v0h64c8.837 0 16 7.163 16 16s-7.163 16-16 16v0zM285.728 292.352l-45.264-45.264c-3.014-2.914-4.885-6.993-4.885-11.509 0-8.837 7.163-16 16-16 4.516 0 8.595 1.871 11.504 4.88l45.268 45.268c2.779 2.874 4.491 6.795 4.491 11.115 0 8.837-7.163 16-16 16-4.321 0-8.241-1.712-11.12-4.496l0.004 0.004zM738.272 292.352c-2.874 2.779-6.795 4.491-11.115 4.491-8.837 0-16-7.163-16-16 0-4.321 1.712-8.241 4.496-11.12l45.26-45.26c2.874-2.779 6.795-4.491 11.115-4.491 8.837 0 16 7.163 16 16 0 4.321-1.712 8.241-4.496 11.12l0.004-0.004zM512 496c-35.346 0-64-28.654-64-64s28.654-64 64-64c35.346 0 64 28.654 64 64v0c0 35.346-28.654 64-64 64v0zM512 400c-17.673 0-32 14.327-32 32s14.327 32 32 32c17.673 0 32-14.327 32-32v0c0-17.673-14.327-32-32-32v0z" />
<glyph unicode="&#xe904;" glyph-name="responsive-design" d="M48 320c-8.832 0-16 7.168-16 16v512c0 26.464 21.536 48 48 48h864c26.464 0 48-21.536 48-48v-48c0-8.832-7.168-16-16-16s-16 7.168-16 16v48c0 8.8-7.2 16-16 16h-864c-8.8 0-16-7.2-16-16v-512c0-8.832-7.168-16-16-16zM512-32h-176c-8.832 0-16 7.168-16 16s7.168 16 16 16h32c26.464 0 48 21.536 48 48v80c0 8.832 7.168 16 16 16s16-7.168 16-16v-80c0-18.016-5.984-34.624-16.032-48h80.032c8.832 0 16-7.168 16-16s-7.168-16-16-16zM496 128h-416c-26.464 0-48 21.536-48 48v96c0 8.832 7.168 16 16 16h448c8.832 0 16-7.168 16-16s-7.168-16-16-16h-432v-80c0-8.8 7.2-16 16-16h416c8.832 0 16-7.168 16-16s-7.168-16-16-16zM688 672h160c8.832 0 16 7.168 16 16s-7.168 16-16 16h-160c-8.832 0-16-7.168-16-16s7.168-16 16-16zM752 32h32c8.832 0 16 7.168 16 16s-7.168 16-16 16h-32c-8.832 0-16-7.168-16-16s7.168-16 16-16zM912-32h-288c-44.128 0-80 35.872-80 80v640c0 44.128 35.872 80 80 80h288c44.128 0 80-35.872 80-80v-640c0-44.128-35.872-80-80-80zM624 736c-26.464 0-48-21.536-48-48v-640c0-26.464 21.536-48 48-48h288c26.464 0 48 21.536 48 48v640c0 26.464-21.536 48-48 48h-288z" />
<glyph unicode="&#xe905;" glyph-name="pencil" d="M864 960c88.364 0 160-71.634 160-160 0-36.020-11.91-69.258-32-96l-64-64-224 224 64 64c26.742 20.090 59.978 32 96 32zM64 224l-64-288 288 64 592 592-224 224-592-592zM715.578 596.422l-448-448-55.156 55.156 448 448 55.156-55.156z" />
<glyph unicode="&#xe906;" glyph-name="globe" d="M512 944c-274 0-496-222-496-496s222-496 496-496 496 222 496 496-222 496-496 496zM898.4 640h-165c-18 88.8-48.2 164.4-86.4 218.2 110-36.4 200.4-115.8 251.4-218.2zM688 448c0-45.8-3.2-88.4-8.6-128h-334.8c-5.4 39.6-8.6 82.2-8.6 128s3.2 88.4 8.6 128h334.8c5.4-39.6 8.6-82.2 8.6-128zM512 880c53.8 0 122.8-88.2 156.2-240h-312.4c33.4 151.8 102.4 240 156.2 240zM377 858.2c-38-53.6-68.4-129.2-86.4-218.2h-165c51 102.4 141.4 181.8 251.4 218.2zM80 448c0 44.6 6.8 87.6 19.4 128h181c-5.2-41-8.4-83.6-8.4-128s3-87 8.4-128h-181c-12.6 40.4-19.4 83.4-19.4 128zM125.6 256h165c18-88.8 48.2-164.4 86.4-218.2-110 36.4-200.4 115.8-251.4 218.2zM512 16c-53.8 0-122.8 88.2-156.2 240h312.4c-33.4-151.8-102.4-240-156.2-240zM647 37.8c38 53.6 68.4 129.2 86.4 218.2h165c-51-102.4-141.4-181.8-251.4-218.2zM743.6 320c5.2 41 8.4 83.6 8.4 128s-3 87-8.4 128h181c12.6-40.4 19.4-83.4 19.4-128s-6.8-87.6-19.4-128h-181z" />
<glyph unicode="&#xe907;" glyph-name="cap" d="M979.456 611.216l-424 137.088c-28.496 9.2-58.4 9.2-86.896 0l-424-137.088c-27.056-8.752-44.56-32.624-44.56-60.816s17.504-52.064 44.544-60.816l47.536-15.36c-5.28-9.888-9.184-20.528-11.728-31.68-17.104-8.288-29.152-25.456-29.152-45.744 0-20.368 12.112-37.632 29.328-45.872l-28.88-178.976c-2.576-15.984 6.256-31.152 18.144-31.152h65.2c11.888 0 20.736 15.168 18.144 31.152l-28.864 178.976c17.216 8.24 29.328 25.504 29.328 45.872 0 16.96-8.784 31.264-21.488 40.592 2.384 7.456 6.080 14.176 10.512 20.496l85.552-27.664-23.376-187.024c0-56.56 137.536-102.4 307.2-102.4s307.2 45.84 307.2 102.4l-23.376 187.024 183.632 59.376c27.040 8.736 44.544 32.608 44.544 60.8s-17.504 52.064-44.544 60.816zM767.168 246.624c-17.216-18.128-104.704-54.624-255.168-54.624s-237.952 36.496-255.168 54.624l20.944 167.568 190.784-61.68c4.16-1.344 41.152-14.768 86.896 0l190.784 61.68 20.928-167.568zM963.648 538.272l-424-137.088c-18.096-5.856-37.2-5.856-55.296 0l-281.072 90.88 313.424 58.784c13.904 2.592 23.056 15.968 20.448 29.872-2.592 13.92-16.256 23.024-29.856 20.432l-326.048-61.12c-19.84-3.712-37.616-12.24-52.928-23.728l-67.984 21.984c-12.56 4.080-11.936 20.384 0 24.24l424 137.088c24.16 7.808 44.544 3.472 55.296 0l424-137.088c11.824-3.824 12.656-20.16 0.016-24.256z" />
<glyph unicode="&#xe908;" glyph-name="map" d="M512 768c-105.87 0-192-86.13-192-192s86.13-192 192-192 192 86.13 192 192-86.13 192-192 192zM512 448c-70.58 0-128 57.42-128 128s57.42 128 128 128 128-57.42 128-128-57.42-128-128-128zM512 960c-212.078 0-384-171.922-384-384 0-154.826 53.94-198.062 344.536-619.34 19.068-27.544 59.858-27.548 78.93 0 290.594 421.278 344.534 464.514 344.534 619.34 0 212.078-171.922 384-384 384zM512 12.138c-278.59 402.886-320 434.874-320 563.862 0 85.476 33.286 165.834 93.726 226.274s140.798 93.726 226.274 93.726 165.834-33.286 226.274-93.726 93.726-140.798 93.726-226.274c0-128.98-41.384-160.94-320-563.862z" />
<glyph unicode="&#xe909;" glyph-name="quote-left" d="M896 512h-128v48c0 61.8 50.2 112 112 112h32c44.2 0 80 35.8 80 80v64c0 44.2-35.8 80-80 80h-32c-185.2 0-336-150.8-336-336v-432c0-70.6 57.4-128 128-128h224c70.6 0 128 57.4 128 128v256c0 70.6-57.4 128-128 128zM960 128c0-35.4-28.6-64-64-64h-224c-35.4 0-64 28.6-64 64v432c0 150.2 121.8 272 272 272h32c8.8 0 16-7.2 16-16v-64c0-8.8-7.2-16-16-16h-32c-97.2 0-176-78.8-176-176v-112h192c35.4 0 64-28.6 64-64v-256zM352 512h-128v48c0 61.8 50.2 112 112 112h32c44.2 0 80 35.8 80 80v64c0 44.2-35.8 80-80 80h-32c-185.2 0-336-150.8-336-336v-432c0-70.6 57.4-128 128-128h224c70.6 0 128 57.4 128 128v256c0 70.6-57.4 128-128 128zM416 128c0-35.4-28.6-64-64-64h-224c-35.4 0-64 28.6-64 64v432c0 150.2 121.8 272 272 272h32c8.8 0 16-7.2 16-16v-64c0-8.8-7.2-16-16-16h-32c-97.2 0-176-78.8-176-176v-112h192c35.4 0 64-28.6 64-64v-256z" />
<glyph unicode="&#xe90a;" glyph-name="at" d="M1008 496c0 272.498-219.894 448-496 448-274.12 0-496-221.838-496-496 0-274.118 221.838-496 496-496 105.852 0 209.362 34.158 294.192 96.642 11.002 8.104 12.846 23.848 4.19 34.422l-30.448 37.194c-8.11 9.908-22.498 11.606-32.856 4.082-67.984-49.374-150.602-76.34-235.078-76.34-220.56 0-400 179.44-400 400s179.44 400 400 400c218.938 0 400-130.040 400-352 0-126.212-84.956-196.58-166.040-196.58-39.010 0-40.266 25.24-32.732 62.926l57.242 297.114c2.852 14.804-8.49 28.54-23.566 28.54h-78.35c-11.651-0.004-21.361-8.307-23.543-19.317l-0.025-0.153c-2.204-11.446-3.322-16.672-4.56-27.986-23.846 39.096-71.756 62.136-130.404 62.136-143.198 0-270.022-124.978-270.022-305.74 0-122.318 65.754-204.22 186.36-204.22 59.606 0 122.688 33.666 159.498 84.478 8.29-61.692 56.994-76.020 118.744-76.020 198.332 0.002 303.398 127.25 303.398 294.822zM460.2 301.3c-56.944 0-90.94 38.916-90.94 104.1 0 115.028 79.12 186.82 149.22 186.82 60.24 0 90.942-43.064 90.942-103.16 0-93.728-66.354-187.76-149.222-187.76z" />
<glyph unicode="&#xe90b;" glyph-name="share" d="M768 320c-51.2 0-97.8-20-132.2-52.8l-196.6 123c11.8 37.6 11.8 78.2 0 115.6l196.6 123c34.4-32.8 81-52.8 132.2-52.8 106 0 192 86 192 192s-86 192-192 192-192-86-192-192c0-19.6 3-39.2 8.8-57.8l-196.6-123c-34.4 32.8-81 52.8-132.2 52.8-106 0-192-86-192-192s86-192 192-192c51.2 0 97.8 20 132.2 52.8l196.6-123c-5.8-18.8-8.8-38.2-8.8-57.8 0-106 86-192 192-192s192 86 192 192-86 192-192 192zM768 864c53 0 96-43 96-96s-43-96-96-96-96 43-96 96 43 96 96 96zM256 352c-53 0-96 43-96 96s43 96 96 96 96-43 96-96-43-96-96-96zM768 32c-53 0-96 43-96 96s43 96 96 96 96-43 96-96-43-96-96-96z" />
<glyph unicode="&#xe90e;" glyph-name="images" horiz-adv-x="1152" d="M1088 832h-64v64c0 35.2-28.8 64-64 64h-896c-35.2 0-64-28.8-64-64v-768c0-35.2 28.8-64 64-64h64v-64c0-35.2 28.8-64 64-64h896c35.2 0 64 28.8 64 64v768c0 35.2-28.8 64-64 64zM128 768v-640h-63.886c-0.040 0.034-0.082 0.076-0.114 0.116v767.77c0.034 0.040 0.076 0.082 0.114 0.114h895.77c0.040-0.034 0.082-0.076 0.116-0.116v-63.884h-768c-35.2 0-64-28.8-64-64v0zM1088 0.116c-0.034-0.040-0.076-0.082-0.116-0.116h-895.77c-0.040 0.034-0.082 0.076-0.114 0.116v767.77c0.034 0.040 0.076 0.082 0.114 0.114h895.77c0.040-0.034 0.082-0.076 0.116-0.116v-767.768zM960 608c0-53.020-42.98-96-96-96s-96 42.98-96 96 42.98 96 96 96 96-42.98 96-96zM1024 64h-768v128l224 384 256-320h64l224 192z" />
<glyph unicode="&#xe90f;" glyph-name="web-design" d="M558.1 115.9h-35v112.8h35zM443.7 115.9h-35v112.8h35zM634.4 115.9h-301.9v34.9h301.9zM731.3 211.2h-495.8c-30.7 0-55.6 25-55.6 55.6v400.5c0 30.7 25 55.6 55.6 55.6h465.3v-35h-465.3c-11.4 0-20.7-9.3-20.7-20.6v-400.5c0-11.4 9.3-20.7 20.7-20.7h495.8c11.4 0 20.7 9.3 20.7 20.7v370h35v-369.9c-0.1-30.7-25-55.7-55.7-55.7v0zM786.9 293.9h-607v34.9h607zM641.3 483.9l-93.4 93.4 184 184c12 12 29 18.8 46.7 18.8s34.7-6.9 46.7-18.8c12-12 18.8-29 18.8-46.7s-6.9-34.7-18.8-46.7l-184-184zM597.4 577.3l43.9-43.9 159.3 159.3c5.5 5.5 8.6 13.5 8.6 22s-3.1 16.5-8.6 22c-11 10.9-33 10.9-43.9 0l-159.3-159.4zM499.3 381.4v0c-33.7 0-66.5 13.5-90 37l-29.8 29.8h42.2c14.2 0 21.4 4.1 21.4 12.3 0 18.3 2.7 41.9 23.4 62.7 16 14.6 35.9 22.3 56.7 22.3 21.1 0 40.6-7.9 55-22.3 15-15 23.3-35.6 22.8-56.7s-9.6-40.8-25.7-55.5c-18.9-18.8-46.1-29.6-76-29.6v0zM460.8 424.7c12-5.4 25.1-8.3 38.5-8.3 20.6 0 39 7.1 51.8 19.9 12.1 11.1 14.7 23 14.9 31.1 0.3 11.5-4.3 22.9-12.6 31.2-15.7 15.7-45.2 15.5-62.9-0.6-10.4-10.4-12.6-22.5-12.6-37.4 0.1-12.6-4.9-26.5-17.1-35.9v0z" />
<glyph unicode="&#xe910;" glyph-name="at-2" d="M512 944c-274.118 0-496-221.838-496-496 0-274.116 221.838-496 496-496 105.85 0 209.36 34.156 294.184 96.638 11.002 8.104 12.846 23.848 4.19 34.422l-10.148 12.396c-8.036 9.818-22.386 11.766-32.614 4.258-73.752-54.13-163.664-83.714-255.612-83.714-238.746 0-432 193.214-432 432 0 238.75 193.214 432 432 432 236.89 0 432-160.048 432-400 0-145.746-105.638-216.482-232.13-216.482-39.468 0-47.39 21.632-39.006 67.736l64.14 328.142c2.898 14.822-8.452 28.604-23.554 28.604h-24.842c-11.64 0-21.345-8.287-23.537-19.283l-0.025-0.153c-4.588-23.692-5.72-26.928-7.722-51.294-23.458 54.156-77.278 86.046-146.75 86.046-136.088 0-266.352-125.9-266.352-314.054 0-123.174 67.83-196.708 181.446-196.708 79.458 0 141.202 48.556 173.266 93.964-2.422-55.572 34.91-84.426 91.95-84.426 215.294 0 317.116 114.45 317.116 277.908 0 272.372-220.274 464-496 464zM436.16 258.746c-73.362 0-117.16 50.216-117.16 134.332 0 149.38 101.53 243.090 194.434 243.090 77.714 0 116.204-55.58 116.204-131.47 0-116.266-76.738-245.952-193.478-245.952z" />
<glyph unicode="&#xe911;" glyph-name="arrow" horiz-adv-x="640" d="M600.6 305l-39.2 39.2c-9.6 9.6-25 9.4-34.2-0.4l-155.2-161.4v689.6c0 13.2-10.8 24-24 24h-56c-13.2 0-24-10.8-24-24v-689.6l-155 161.4c-9.4 9.6-24.8 9.8-34.2 0.4l-39.2-39.2c-9.4-9.4-9.4-24.6 0-34l263.6-263.6c9.4-9.4 24.6-9.4 34 0l263.6 263.6c9.2 9.4 9.2 24.6-0.2 34z" />
<glyph unicode="&#xe913;" glyph-name="arrows-h" d="M799.918 618.83c-9.372-9.372-9.372-24.568 0-33.942l103.856-102.888h-783.548l103.856 102.888c9.372 9.372 9.372 24.568 0 33.942l-14.142 14.14c-9.372 9.372-24.568 9.372-33.94 0l-168.97-168c-9.372-9.372-9.372-24.568 0-33.942l168.97-168c9.372-9.372 24.568-9.372 33.94 0l14.142 14.14c9.372 9.372 9.372 24.568 0 33.942l-103.856 102.89h783.546l-103.856-102.888c-9.372-9.372-9.372-24.568 0-33.942l14.142-14.14c9.372-9.372 24.568-9.372 33.94 0l168.97 168c9.374 9.372 9.374 24.568 0 33.942l-168.97 168c-9.372 9.372-24.568 9.372-33.94 0l-14.14-14.142z" />
<glyph unicode="&#xe914;" glyph-name="camera" d="M648.6 832c6.6 0 12.6-4.2 15-10.4l44.2-117.6h220.2c17.6 0 32-14.4 32-32v-576c0-17.6-14.4-32-32-32h-832c-17.6 0-32 14.4-32 32v576c0 17.6 14.4 32 32 32h220.4l40.2 107.2c4.6 12.4 16.6 20.8 30 20.8h262zM648.6 896h-262c-40 0-75.8-24.8-89.8-62.2l-24.8-65.8h-176c-53 0-96-43-96-96v-576c0-53 43-96 96-96h832c53 0 96 43 96 96v576c0 53-43 96-96 96h-176l-28.6 76c-11.6 31.4-41.4 52-74.8 52zM512 144c-132.4 0-240 107.6-240 240s107.6 240 240 240 240-107.6 240-240-107.6-240-240-240zM512 560c-97 0-176-79-176-176s79-176 176-176 176 79 176 176-79 176-176 176z" />
<glyph unicode="&#xe915;" glyph-name="cog" d="M965.392 361.448l-65.22 37.654c1.958 14.684 3.075 31.661 3.075 48.899s-1.117 34.215-3.284 50.863l0.209-1.964 65.22 37.654c19.152 11.056 28.39 33.804 22.092 55.002-22.428 75.498-62.35 143.456-115.070 199.19-15.268 16.14-39.634 19.672-58.874 8.564l-65.124-37.596c-24.475 18.797-52.351 35.208-82.151 47.995l-2.527 0.965v75.228c0 22.26-15.304 41.608-36.968 46.734-75.288 17.818-154.236 17.82-229.54 0-21.662-5.126-36.968-24.472-36.968-46.734v-75.228c-32.327-13.752-60.203-30.162-85.603-49.641l0.925 0.681-65.124 37.596c-19.242 11.108-43.608 7.576-58.874-8.564-52.72-55.734-92.642-123.694-115.070-199.19-6.298-21.198 2.94-43.944 22.092-55.002l65.22-37.654c-1.958-14.684-3.075-31.661-3.075-48.899s1.117-34.215 3.284-50.863l-0.209 1.964-65.22-37.654c-19.152-11.056-28.39-33.804-22.092-55.002 22.428-75.496 62.35-143.456 115.070-199.19 15.268-16.14 39.634-19.672 58.874-8.566l65.124 37.596c24.474-18.798 52.351-35.207 82.151-47.994l2.527-0.964v-75.228c0-22.26 15.304-41.608 36.968-46.734 75.29-17.818 154.236-17.82 229.54 0 21.662 5.126 36.968 24.472 36.968 46.734v75.228c32.326 13.752 60.203 30.162 85.604 49.64l-0.926-0.682 65.124-37.596c19.24-11.108 43.606-7.576 58.874 8.566 52.72 55.734 92.642 123.694 115.070 199.19 6.298 21.198-2.94 43.944-22.092 55.002zM834.434 160.526l-92.618 53.48c-53.976-46.142-73.118-57.752-142.078-82.118v-106.958c-26.375-5.694-56.676-8.955-87.738-8.955s-61.363 3.261-90.578 9.459l2.84-0.504v106.958c-67.242 23.758-86.71 34.79-142.078 82.118l-92.618-53.48c-39.42 44.18-69.378 95.978-87.858 151.916l92.658 53.48c-13.070 70.834-13.076 93.288 0 164.158l-92.658 53.48c18.48 55.938 48.44 107.738 87.858 151.938l92.618-53.52c54.754 46.868 74.126 58.13 142.078 82.138v106.956c26.376 5.703 56.675 8.97 87.738 8.97s61.363-3.267 90.575-9.475l-2.837 0.505v-106.958c67.956-24.010 87.33-35.274 142.078-82.138l92.618 53.52c39.418-44.198 69.378-95.998 87.858-151.938l-92.658-53.48c13.072-70.852 13.076-93.288 0-164.158l92.658-53.48c-18.48-55.936-48.438-107.736-87.858-151.914zM512 640c-105.87 0-192-86.13-192-192s86.13-192 192-192 192 86.13 192 192-86.13 192-192 192zM512 320c-70.58 0-128 57.42-128 128s57.42 128 128 128 128-57.42 128-128-57.42-128-128-128z" />
<glyph unicode="&#xe918;" glyph-name="die-gluhbirne" d="M477.184-45.568c-2.048 2.048-6.144 2.048-10.24 4.096-18.432 10.24-28.672 24.576-28.672 45.056 0 4.096 0 8.192-6.144 10.24-55.296 24.576-79.872 67.584-79.872 126.976 0 28.672 0 55.296-6.144 83.968-10.24 36.864-26.624 69.632-53.248 98.304s-49.152 59.392-63.488 94.208c-32.768 79.872-34.816 159.744 0 237.568 30.72 69.632 79.872 120.832 149.504 151.552 53.248 24.576 108.544 32.768 165.888 22.528 108.544-18.432 188.416-77.824 229.376-178.176 47.104-112.64 28.672-217.088-51.2-311.296-24.576-28.672-49.152-59.392-61.44-96.256-8.192-24.576-10.24-51.2-12.288-77.824 0-20.48 0-43.008-4.096-63.488-8.192-38.912-32.768-67.584-69.632-83.968-8.192-4.096-12.288-6.144-12.288-16.384 0-20.48-12.288-34.816-32.768-43.008-2.048-2.048-6.144-2.048-8.192-4.096-14.336 0-28.672 0-45.056 0zM587.776 192c8.192 0 14.336 0 20.48 0 8.192 0 8.192 2.048 10.24 10.24 4.096 20.48 8.192 40.96 14.336 61.44 12.288 38.912 36.864 69.632 63.488 98.304 53.248 59.392 73.728 131.072 63.488 210.944-16.384 116.736-108.544 210.944-227.328 223.232-83.968 10.24-157.696-14.336-217.088-75.776-67.584-67.584-90.112-149.504-69.632-241.664 10.24-49.152 34.816-90.112 67.584-124.928 40.96-43.008 65.536-94.208 71.68-153.6 0-2.048 4.096-6.144 6.144-6.144 8.192 0 14.336 0 24.576 0 0 4.096 0 8.192 0 12.288 0 106.496 0 212.992 0 319.488 0 8.192 2.048 16.384 6.144 22.528 20.48 30.72 40.96 61.44 61.44 92.16 12.288 16.384 24.576 16.384 34.816 0 20.48-30.72 38.912-59.392 59.392-90.112 6.144-8.192 8.192-18.432 8.192-28.672 0-106.496 0-210.944 0-317.44 2.048-4.096 2.048-8.192 2.048-12.288zM550.912 192c0 104.448 0 208.896 0 313.344-10.24-2.048-22.528-4.096-32.768-6.144 0-102.4 0-204.8 0-307.2 12.288 0 22.528 0 32.768 0zM450.56 507.392c0-104.448 0-208.896 0-313.344 10.24 0 22.528 0 32.768 0 0 102.4 0 204.8 0 307.2-12.288 2.048-22.528 4.096-32.768 6.144zM395.264 95.744c10.24-26.624 34.816-49.152 65.536-53.248 20.48-4.096 43.008-2.048 63.488-2.048 16.384 0 32.768 4.096 47.104 14.336 16.384 10.24 28.672 22.528 34.816 40.96-71.68 0-141.312 0-210.944 0zM387.072 130.56c75.776 0 151.552 0 227.328 0 0 8.192 0 16.384 0 24.576-75.776 0-151.552 0-227.328 0 0-8.192 0-14.336 0-24.576zM540.672 540.16c-8.192 16.384-8.192 14.336-22.528 12.288-12.288-2.048-24.576-2.048-36.864 0-14.336 2.048-16.384 2.048-20.48-14.336 26.624-4.096 53.248-4.096 79.872 2.048zM473.088 3.584c0-8.192 4.096-14.336 12.288-14.336 10.24 0 20.48 0 30.72 0 8.192 0 12.288 6.144 12.288 14.336-18.432 0-36.864 0-55.296 0zM499.712 603.648c-4.096-6.144-6.144-10.24-10.24-16.384 8.192 0 12.288 0 20.48 0-2.048 6.144-6.144 10.24-10.24 16.384zM866.304 550.4c6.144 0 12.288 0 20.48-2.048s12.288-8.192 12.288-16.384c0-8.192-4.096-16.384-12.288-16.384-14.336-2.048-26.624-2.048-40.96 0-8.192 0-12.288 8.192-12.288 16.384s4.096 14.336 14.336 16.384c4.096 2.048 12.288 2.048 18.432 2.048zM135.168 515.584c-6.144 0-14.336 0-20.48 2.048-8.192 2.048-12.288 8.192-12.288 16.384s4.096 14.336 12.288 16.384c14.336 0 28.672 0 40.96-2.048 8.192 0 12.288-8.192 12.288-16.384s-4.096-14.336-12.288-16.384c-6.144 0-14.336 0-20.48 0zM313.344 880.128c2.048-2.048 8.192-4.096 10.24-8.192 6.144-8.192 10.24-16.384 14.336-26.624s2.048-18.432-6.144-24.576c-8.192-4.096-18.432-2.048-24.576 6.144-6.144 10.24-12.288 18.432-16.384 28.672-2.048 12.288 8.192 24.576 22.528 24.576zM708.608 863.744c-2.048-6.144-2.048-8.192-4.096-12.288-4.096-8.192-10.24-18.432-14.336-26.624-6.144-6.144-14.336-8.192-22.528-4.096s-12.288 14.336-8.192 22.528c6.144 10.24 10.24 20.48 18.432 30.72 4.096 6.144 12.288 8.192 18.432 4.096s10.24-10.24 12.288-14.336zM847.872 720.384c-2.048-2.048-4.096-8.192-10.24-12.288-8.192-6.144-16.384-10.24-26.624-14.336-8.192-4.096-18.432-2.048-22.528 6.144s-2.048 18.432 6.144 22.528c10.24 6.144 18.432 12.288 28.672 16.384 12.288 4.096 24.576-2.048 24.576-18.432zM172.032 740.864c2.048 0 4.096 0 6.144-2.048 10.24-6.144 20.48-10.24 28.672-16.384s10.24-14.336 4.096-22.528c-4.096-8.192-14.336-10.24-22.528-6.144-10.24 4.096-20.48 10.24-28.672 16.384-6.144 4.096-8.192 12.288-6.144 18.432 4.096 8.192 10.24 12.288 18.432 12.288zM217.088 355.84c-4.096-4.096-6.144-10.24-10.24-14.336-8.192-6.144-16.384-10.24-26.624-14.336-8.192-4.096-18.432-2.048-22.528 6.144s-4.096 18.432 6.144 24.576c10.24 6.144 18.432 12.288 30.72 16.384 8.192 4.096 20.48-4.096 22.528-18.432zM847.872 345.6c0-14.336-12.288-24.576-24.576-18.432-10.24 4.096-20.48 10.24-28.672 16.384s-10.24 14.336-4.096 22.528c4.096 8.192 12.288 10.24 20.48 6.144 10.24-6.144 20.48-10.24 30.72-18.432 2.048 0 4.096-6.144 6.144-8.192zM483.328 898.56c0 6.144 0 10.24 0 16.384 0 8.192 8.192 14.336 16.384 16.384 8.192 0 16.384-6.144 16.384-16.384 0-12.288 0-22.528 0-34.816 0-8.192-8.192-14.336-16.384-14.336s-16.384 6.144-16.384 14.336c0 6.144 0 12.288 0 18.432 0 0 0 0 0 0zM739.328 546.304c0-2.048 0-4.096 0-4.096 0-14.336-6.144-22.528-16.384-22.528s-16.384 8.192-18.432 20.48c-2.048 14.336-2.048 28.672-6.144 40.96-18.432 71.68-61.44 120.832-131.072 147.456-4.096 2.048-8.192 2.048-12.288 4.096-10.24 4.096-14.336 12.288-12.288 22.528s12.288 14.336 22.528 10.24c16.384-6.144 34.816-12.288 49.152-20.48 79.872-45.056 118.784-110.592 124.928-198.656zM503.808 775.68c16.384 0 26.624-6.144 24.576-18.432 0-12.288-8.192-16.384-26.624-16.384-16.384 0-24.576 6.144-24.576 18.432 2.048 10.24 12.288 16.384 26.624 16.384z" />
<glyph unicode="&#xe919;" glyph-name="globe1" d="M511.407 959.953c-18.355 0-36.697-0.987-54.948-2.954-16.728-1.709-33.25-4.511-49.55-7.911-3.155-0.66-6.311-1.356-9.466-2.085-96.040-21.866-183.736-70.97-252.57-141.424-6.401-6.561-12.667-13.317-18.795-20.264-185.942-213.468-163.627-537.255 49.843-723.197 204.37-178.016 511.999-166.171 702.076 27.031 6.414 6.561 12.678 13.317 18.795 20.264 82.059 93.45 127.281 213.586 127.208 337.951 0 283.097-229.495 512.591-512.593 512.588zM167.649 779.95c2.7 2.802 5.502 5.485 8.253 8.201 3.178 3.127 6.339 6.271 9.585 9.295 2.853 2.665 5.792 5.228 8.714 7.826 3.298 2.922 6.578 5.844 9.961 8.663 2.973 2.512 6.031 4.921 9.073 7.347 3.417 2.734 6.835 5.468 10.354 8.099 3.11 2.341 6.271 4.613 9.449 6.835 3.537 2.529 7.091 5.126 10.696 7.484 3.229 2.187 6.493 4.306 9.773 6.407 3.656 2.341 7.33 4.647 11.038 6.835 3.338 1.993 6.698 3.953 10.081 5.878 3.782 2.153 7.58 4.255 11.397 6.305 3.417 1.822 6.835 3.605 10.252 5.348 3.896 1.965 7.826 3.862 11.772 5.724 3.417 1.623 6.971 3.246 10.491 4.784 4.015 1.709 8.082 3.417 12.148 5.126 3.537 1.452 7.057 2.871 10.628 4.237 4.135 1.572 8.321 3.041 12.507 4.511 3.571 1.247 7.142 2.495 10.764 3.674 4.255 1.367 8.543 2.631 12.849 3.879 3.605 1.042 7.176 2.119 10.799 3.093 1.384 0.359 2.768 0.649 4.152 1.008-50.576-49.108-88.108-110.055-109.199-177.322-40.554 10.696-79.815 25.805-117.076 45.057 0.564 0.598 1.042 1.196 1.538 1.709zM143.079 752.441c41.044-22.238 84.567-39.559 129.668-51.601-22.11-76.88-33.716-156.398-34.497-236.39h-204.865c3.723 105.485 42.297 206.76 109.694 287.99zM143.079 142.288c-67.393 81.233-105.967 182.508-109.694 287.99h204.865c0.782-79.992 12.385-159.51 34.497-236.39-45.099-12.046-88.623-29.365-129.668-51.601zM388.131-14.838c-3.451 0.871-7.022 1.999-10.576 3.041-4.323 1.264-8.663 2.529-12.934 3.913-3.605 1.162-7.159 2.409-10.713 3.656-4.203 1.452-8.406 2.939-12.558 4.528-3.554 1.35-7.057 2.768-10.576 4.203-4.084 1.709-8.167 3.417-12.217 5.126-3.486 1.538-6.954 3.12-10.406 4.75-3.981 1.879-7.945 3.793-11.96 5.775-3.417 1.709-6.835 3.417-10.252 5.28-3.862 2.067-7.689 4.186-11.516 6.373-3.417 1.897-6.664 3.844-9.961 5.826-3.759 2.255-7.45 4.579-11.14 6.954-3.246 2.067-6.493 4.169-9.688 6.322-3.639 2.46-7.245 5.023-10.816 7.586-3.127 2.238-6.254 4.477-9.329 6.835-3.537 2.665-7.005 5.416-10.457 8.184-3.024 2.409-6.031 4.801-8.987 7.279-3.417 2.836-6.715 5.792-10.030 8.731-2.905 2.58-5.826 5.126-8.663 7.757-3.263 3.041-6.424 6.202-9.603 9.329-2.751 2.717-5.553 5.399-8.253 8.184-0.496 0.53-0.974 1.076-1.469 1.589 37.259 19.261 76.519 34.376 117.076 45.074 21.095-67.265 58.625-128.21 109.199-177.322-1.384 0.359-2.785 0.649-4.169 1.025zM494.323-29.703c-73.112 10.389-137.203 86.696-177.527 199.381 58.299 13.054 117.791 20.057 177.527 20.897v-220.277zM494.323 224.747c-63.369-0.833-126.471-8.359-188.257-22.451-21.454 74.127-32.772 150.819-33.643 227.983h221.9v-205.532zM494.323 464.451h-221.9c0.869 77.164 12.187 153.856 33.643 227.983 61.786-14.090 124.891-21.616 188.257-22.451v-205.532zM494.323 704.155c-59.738 0.833-119.229 7.836-177.527 20.897 40.324 112.684 104.415 188.992 177.527 199.381v-220.277zM879.74 752.441c67.393-81.233 105.967-182.508 109.694-287.99h-204.865c-0.782 79.992-12.385 159.51-34.497 236.39 45.099 12.048 88.623 29.367 129.668 51.601zM634.551 909.585c3.588-0.888 7.159-2.016 10.713-3.058 4.323-1.264 8.663-2.529 12.934-3.913 3.605-1.162 7.159-2.409 10.713-3.656 4.203-1.452 8.406-2.939 12.558-4.528 3.554-1.35 7.057-2.768 10.576-4.203 4.084-1.709 8.167-3.417 12.217-5.126 3.486-1.538 6.954-3.12 10.406-4.75 3.981-1.879 7.945-3.793 11.96-5.775 3.417-1.709 6.835-3.417 10.252-5.28 3.862-2.067 7.689-4.186 11.516-6.373 3.417-1.897 6.664-3.844 9.961-5.826 3.759-2.255 7.45-4.579 11.14-6.954 3.246-2.067 6.493-4.169 9.688-6.322 3.639-2.46 7.228-5.006 10.799-7.569 3.144-2.238 6.271-4.494 9.363-6.835 3.52-2.648 6.971-5.399 10.44-8.167 3.007-2.392 6.031-4.784 8.987-7.279 3.417-2.836 6.715-5.792 10.030-8.731 2.905-2.58 5.826-5.126 8.663-7.757 3.263-3.041 6.424-6.202 9.603-9.329 2.751-2.717 5.553-5.399 8.253-8.184 0.496-0.53 0.974-1.076 1.469-1.589-37.259-19.261-76.519-34.376-117.076-45.074-21.136 67.273-58.715 128.214-109.336 177.305 1.384-0.359 2.785-0.649 4.169-1.025zM528.496 924.433c73.112-10.389 137.203-86.696 177.527-199.381-58.299-13.054-117.791-20.057-177.527-20.897v220.277zM528.496 669.983c63.369 0.833 126.471 8.359 188.257 22.451 21.454-74.127 32.772-150.819 33.643-227.983h-221.9v205.532zM528.496 430.278h221.9c-0.869-77.164-12.187-153.856-33.643-227.983v0c-61.786 14.090-124.888 21.616-188.257 22.451v205.532zM528.496-29.703v220.277c59.738-0.833 119.229-7.836 177.527-20.897-40.324-112.684-104.415-188.992-177.527-199.381zM855.17 114.779c-2.7-2.785-5.485-5.468-8.236-8.184-3.178-3.127-6.356-6.288-9.62-9.329-2.836-2.648-5.758-5.126-8.663-7.774-3.315-2.939-6.612-5.878-9.996-8.714-2.99-2.495-6.031-4.904-9.073-7.33-3.417-2.734-6.835-5.468-10.354-8.099-3.11-2.341-6.271-4.613-9.449-6.835-3.537-2.529-7.091-5.126-10.696-7.484-3.229-2.187-6.493-4.306-9.773-6.39-3.656-2.358-7.341-4.637-11.055-6.835-3.417-1.999-6.681-3.947-10.047-5.878-3.782-2.153-7.586-4.255-11.414-6.305-3.417-1.822-6.835-3.605-10.252-5.348-3.896-1.965-7.826-3.862-11.772-5.724-3.417-1.623-6.971-3.246-10.491-4.784-4.015-1.709-8.082-3.417-12.148-5.126-3.537-1.435-7.057-2.871-10.611-4.22-4.169-1.589-8.355-3.076-12.558-4.528-3.554-1.247-7.108-2.495-10.713-3.656-4.272-1.384-8.543-2.648-12.9-3.896-3.571-1.059-7.159-2.119-10.764-3.093-1.384-0.359-2.768-0.649-4.152-1.008 50.576 49.108 88.108 110.055 109.199 177.322 40.554-10.696 79.815-25.805 117.076-45.057-0.564-0.615-1.042-1.213-1.538-1.726zM879.74 142.288c-41.044 22.238-84.567 39.559-129.668 51.601 22.11 76.88 33.716 156.398 34.497 236.39h204.865c-3.721-105.483-42.297-206.76-109.694-287.99z" />
<glyph unicode="&#xe91c;" glyph-name="laptop-code" d="M426.144 413.36l18.096 18.096c4.992 4.992 4.992 13.104 0 18.096l-75.248 75.248 75.248 75.248c4.992 4.992 4.992 13.104 0 18.096l-18.096 18.096c-4.992 4.992-13.104 4.992-18.096 0l-102.4-102.4c-4.992-4.992-4.992-13.104 0-18.096l102.4-102.4c5.008-4.992 13.104-4.992 18.096 0.016zM579.744 431.456l18.096-18.096c4.992-4.992 13.104-4.992 18.096 0l102.4 102.4c4.992 4.992 4.992 13.104 0 18.096l-102.4 102.4c-4.992 4.992-13.104 4.992-18.096 0l-18.096-18.096c-4.992-4.992-4.992-13.104 0-18.096l75.264-75.264-75.248-75.248c-2.322-2.316-3.758-5.518-3.758-9.056 0-3.53 1.43-6.726 3.742-9.040v0zM998.4 268.8h-76.8v435.2c0 56.48-45.952 102.4-102.4 102.4h-614.4c-56.448 0-102.4-45.92-102.4-102.4v-435.2h-76.8c-14.144 0-25.6-11.456-25.6-25.6v-76.8c0-70.576 57.408-128 128-128h768c70.592 0 128 57.424 128 128v76.8c0 14.144-11.456 25.6-25.6 25.6zM153.6 704c0 28.272 22.928 51.2 51.2 51.2h614.4c28.272 0 51.2-22.928 51.2-51.2v-435.2h-244.592c-6.496 0-11.232-5.008-12.672-11.344-5.168-22.816-25.568-39.856-49.936-39.856h-102.4c-24.368 0-44.768 17.040-49.936 39.856-1.44 6.336-6.176 11.344-12.672 11.344h-244.592v435.2zM972.8 166.4c0-42.352-34.448-76.8-76.8-76.8h-768c-42.352 0-76.8 34.448-76.8 76.8v51.2h311.6c10.544-29.792 39.008-51.2 72.4-51.2h153.6c33.408 0 61.856 21.408 72.4 51.2h311.6v-51.2z" />
<glyph unicode="&#xe91d;" glyph-name="logo-design" d="M96.256 699.904c4.096 6.144 10.24 8.192 18.432 8.192 22.528 0 45.056 0 65.536 0 4.096 0 6.144 0 10.24 0 0 6.144 0 12.288 0 18.432 0 16.384 0 30.72 0 47.104 0 10.24 4.096 14.336 12.288 14.336s12.288-4.096 14.336-14.336c0-18.432 0-36.864 0-53.248 0-2.048 0-6.144 0-10.24 16.384 0 30.72 0 45.056 0 10.24 0 16.384-8.192 14.336-16.384s-8.192-10.24-14.336-10.24c-14.336 0-26.624 0-40.96 0 0-28.672 0-57.344 0-88.064 51.2 28.672 100.352 57.344 151.552 88.064-4.096 0-6.144 0-8.192 0-14.336 0-30.72 0-45.056 0-8.192 0-14.336 6.144-14.336 14.336s6.144 12.288 14.336 12.288c2.048 0 4.096 0 6.144 0 45.056 0 92.16 0 137.216 0 49.152 0 100.352 0 149.504 0 4.096 0 6.144 0 12.288 0 0 10.24 0 18.432 0 28.672 0 12.288 0 22.528 0 34.816 0 10.24 4.096 16.384 12.288 16.384s12.288-6.144 12.288-16.384c0-18.432 0-36.864 0-53.248 0-2.048 0-4.096 0-8.192 4.096 0 10.24 0 14.336 0 22.528 0 43.008 0 65.536 0 10.24 0 14.336-4.096 16.384-12.288 0-8.192-6.144-14.336-14.336-14.336-22.528 0-47.104 0-69.632 0-4.096 0-6.144 0-10.24 0 0-63.488 0-126.976 0-192.512 2.048 2.048 4.096 4.096 6.144 4.096 38.912 38.912 77.824 77.824 116.736 116.736 4.096 4.096 4.096 6.144 2.048 12.288-6.144 18.432-4.096 34.816 10.24 49.152s30.72 16.384 49.152 10.24c4.096-2.048 8.192-2.048 12.288 2.048 32.768 24.576 79.872 22.528 108.544-6.144s32.768-75.776 6.144-108.544c-2.048-4.096-4.096-6.144-2.048-12.288 6.144-18.432 4.096-34.816-10.24-49.152s-30.72-18.432-49.152-10.24c-6.144 2.048-8.192 0-12.288-4.096-67.584-67.584-137.216-135.168-204.8-204.8-8.192-8.192-18.432-12.288-28.672-16.384-2.048 0-6.144-4.096-6.144-6.144 0-18.432 0-36.864 0-55.296 10.24 0 18.432 0 28.672 0 16.384 0 34.816 0 51.2 0 10.24 0 16.384-4.096 16.384-14.336 0-8.192-6.144-12.288-16.384-12.288-22.528 0-45.056 0-69.632 0-4.096 0-6.144 0-10.24 0 0-18.432 0-36.864 0-55.296 0-4.096 0-6.144 0-10.24 0-8.192-6.144-14.336-14.336-14.336s-12.288 6.144-12.288 14.336c0 18.432 0 38.912 0 57.344 0 2.048 0 4.096 0 8.192-8.192 0-18.432 0-26.624 0-10.24 0-16.384 4.096-16.384 12.288s6.144 12.288 16.384 14.336c8.192 0 18.432 0 26.624 0 0 16.384 0 32.768 0 49.152-6.144-2.048-12.288-4.096-18.432-6.144-16.384-6.144-30.72-10.24-47.104-16.384-10.24-4.096-20.48-4.096-30.72 2.048-2.048 0-4.096 2.048-6.144 0-16.384-8.192-32.768-18.432-47.104-28.672 12.288 0 24.576 0 36.864 0 8.192 0 18.432 0 26.624 0 10.24 0 16.384-4.096 16.384-14.336 0-8.192-6.144-12.288-16.384-12.288-96.256 0-194.56 0-290.816 0-8.192 0-16.384 0-26.624 0 0-8.192 0-14.336 0-20.48 0-14.336 0-28.672 0-43.008 0-10.24-6.144-14.336-14.336-14.336s-12.288 6.144-12.288 14.336c0 20.48 0 40.96 0 63.488-4.096 0-6.144 0-10.24 0-22.528 0-45.056 0-65.536 0-8.192 0-14.336 2.048-20.48 8.192 0 4.096 0 6.144 0 10.24 4.096 6.144 12.288 8.192 18.432 8.192 22.528 0 45.056 0 65.536 0 2.048 0 6.144 0 8.192 0 0 155.648 0 311.296 0 468.992-26.624 0-51.2 0-75.776 0-8.192 0-14.336 2.048-20.48 8.192 4.096 0 4.096 4.096 4.096 8.192zM565.248 404.992c18.432 18.432 36.864 36.864 53.248 55.296 2.048 2.048 2.048 6.144 2.048 10.24 0 24.576 0 49.152 0 73.728 0 14.336-6.144 22.528-16.384 28.672-57.344 32.768-112.64 65.536-167.936 98.304-10.24 6.144-20.48 6.144-32.768 0-57.344-32.768-112.64-65.536-169.984-98.304-10.24-6.144-16.384-14.336-16.384-26.624 0-65.536 0-131.072 0-198.656 0-12.288 4.096-20.48 14.336-26.624 57.344-32.768 114.688-65.536 172.032-98.304 10.24-6.144 20.48-6.144 30.72 0 24.576 14.336 49.152 28.672 71.68 40.96 2.048 2.048 4.096 4.096 4.096 6.144 8.192 22.528 16.384 45.056 22.528 67.584 0 2.048 2.048 6.144 2.048 10.24-4.096-2.048-8.192-4.096-10.24-6.144-26.624-14.336-53.248-30.72-79.872-45.056-18.432-10.24-36.864-12.288-55.296-2.048-30.72 18.432-61.44 34.816-92.16 53.248-16.384 10.24-26.624 24.576-26.624 45.056 0 36.864 0 71.68 0 108.544 0 18.432 8.192 34.816 26.624 43.008 30.72 18.432 61.44 36.864 92.16 53.248 16.384 10.24 34.816 10.24 51.2 0 30.72-18.432 61.44-34.816 92.16-53.248 18.432-10.24 26.624-26.624 26.624-47.104 0-26.624 0-55.296 0-81.92 6.144-2.048 6.144-4.096 6.144-10.24zM301.056 445.952c0-18.432 0-34.816 0-53.248 0-10.24 4.096-18.432 14.336-24.576 30.72-16.384 59.392-34.816 90.112-51.2 10.24-6.144 18.432-6.144 28.672 0 30.72 16.384 61.44 34.816 90.112 53.248 8.192 6.144 14.336 14.336 14.336 24.576 0 34.816 0 69.632 0 104.448 0 10.24-4.096 18.432-14.336 24.576-30.72 18.432-61.44 34.816-90.112 53.248-10.24 6.144-20.48 6.144-28.672 0-28.672-16.384-59.392-34.816-88.064-51.2-10.24-6.144-16.384-14.336-16.384-26.624 0-18.432 0-34.816 0-53.248zM794.624 595.456c-63.488-63.488-129.024-129.024-192.512-192.512 4.096-4.096 12.288-6.144 16.384-10.24s8.192-12.288 12.288-18.432c2.048 2.048 4.096 4.096 6.144 6.144 34.816 34.816 67.584 67.584 102.4 102.4 2.048 2.048 4.096 4.096 8.192 6.144 8.192 4.096 18.432-2.048 18.432-12.288 0-4.096-4.096-8.192-6.144-12.288-20.48-20.48-43.008-43.008-63.488-63.488-16.384-16.384-30.72-30.72-47.104-47.104 6.144-4.096 14.336-8.192 18.432-12.288s8.192-12.288 10.24-16.384c63.488 63.488 129.024 129.024 192.512 192.512-10.24 10.24-18.432 18.432-28.672 28.672-2.048-2.048-4.096-4.096-6.144-6.144-10.24-10.24-20.48-20.48-30.72-30.72-6.144-6.144-14.336-6.144-20.48-2.048-4.096 6.144-4.096 12.288 2.048 18.432 2.048 2.048 4.096 4.096 6.144 6.144 10.24 10.24 20.48 20.48 28.672 28.672-8.192 16.384-18.432 24.576-26.624 34.816zM913.408 519.68c10.24 0 18.432 4.096 20.48 12.288 4.096 8.192 2.048 16.384-4.096 24.576-32.768 32.768-65.536 65.536-98.304 98.304-8.192 8.192-20.48 8.192-28.672 0s-8.192-20.48 0-28.672c32.768-32.768 65.536-65.536 98.304-98.304 4.096-4.096 10.24-6.144 12.288-8.192zM620.544 679.424c-51.2 0-100.352 0-151.552 0 51.2-30.72 100.352-59.392 151.552-88.064 0 30.72 0 59.392 0 88.064zM366.592 212.48c0 0 2.048 0 0 0-49.152 30.72-98.304 59.392-147.456 88.064 0-30.72 0-59.392 0-88.064 49.152 0 98.304 0 147.456 0zM606.208 357.888c0 2.048 0 6.144-2.048 10.24-2.048 8.192-8.192 12.288-18.432 12.288-8.192 0-10.24-4.096-12.288-10.24-4.096-16.384-10.24-30.72-16.384-45.056-2.048-4.096-2.048-8.192 2.048-10.24 10.24-10.24 18.432-20.48 28.672-28.672 2.048-2.048 6.144-2.048 8.192-2.048 18.432 6.144 34.816 12.288 53.248 18.432 2.048 0 4.096 2.048 4.096 4.096 4.096 10.24-2.048 24.576-14.336 26.624-6.144 0-12.288 0-18.432 0-12.288-2.048-18.432 4.096-18.432 16.384 2.048-2.048 4.096 2.048 4.096 8.192zM940.032 585.216c18.432 22.528 16.384 57.344-6.144 77.824-20.48 18.432-55.296 18.432-73.728 2.048 26.624-28.672 53.248-55.296 79.872-79.872zM563.2 269.824c-6.144 6.144-12.288 12.288-18.432 18.432-2.048-6.144-4.096-12.288-6.144-18.432s2.048-8.192 6.144-6.144c6.144 0 12.288 4.096 18.432 6.144z" />
<glyph unicode="&#xe91f;" glyph-name="network-wired" d="M1011.2 473.6h-473.6v128h128c28.272 0 51.2 22.928 51.2 51.2v153.6c0 28.272-22.928 51.2-51.2 51.2h-307.2c-28.272 0-51.2-22.928-51.2-51.2v-153.6c0-28.272 22.928-51.2 51.2-51.2h128v-128h-473.6c-7.072 0-12.8-5.728-12.8-12.8v-25.6c0-7.072 5.728-12.8 12.8-12.8h192v-128h-102.4c-28.272 0-51.2-22.928-51.2-51.2v-153.6c0-28.272 22.928-51.2 51.2-51.2h256c28.272 0 51.2 22.928 51.2 51.2v153.6c0 28.272-22.928 51.2-51.2 51.2h-102.4v128h512v-128h-102.4c-28.272 0-51.2-22.928-51.2-51.2v-153.6c0-28.272 22.928-51.2 51.2-51.2h256c28.272 0 51.2 22.928 51.2 51.2v153.6c0 28.272-22.928 51.2-51.2 51.2h-102.4v128h192c7.072 0 12.8 5.728 12.8 12.8v25.6c0 7.072-5.728 12.8-12.8 12.8zM358.4 243.2v-153.6h-256v153.6h256zM358.4 652.8v153.6h307.2v-153.6h-307.2zM921.6 243.2v-153.6h-256v153.6h256z" />
<glyph unicode="&#xe920;" glyph-name="next" d="M776.279 476.096l-472.843 472.843c-15.654 15.118-40.598 14.684-55.716-0.97-14.749-15.27-14.749-39.478 0-54.746l444.985-444.985-444.985-444.985c-15.384-15.386-15.384-40.33 0-55.716 15.388-15.384 40.33-15.384 55.716 0l472.843 472.843c15.384 15.388 15.384 40.33 0 55.716z" />
<glyph unicode="&#xe922;" glyph-name="phone-laptop" d="M972.8 652.8h-307.2c-28.277 0-51.2-22.923-51.2-51.2v0-512c0-28.277 22.923-51.2 51.2-51.2v0h307.2c28.277 0 51.2 22.923 51.2 51.2v0 512c0 28.277-22.923 51.2-51.2 51.2v0zM972.8 89.6h-307.2v512h307.2zM153.6 806.4h614.4v-102.4h51.2v102.4c0 28.277-22.923 51.2-51.2 51.2v0h-614.4c-28.277 0-51.2-22.923-51.2-51.2v0-409.6h-76.8c-14.138 0-25.6-11.462-25.6-25.6v0-25.6c0.127-56.452 45.815-102.191 102.236-102.4h460.964v51.2h-460.944c-28.215 0.082-51.056 22.973-51.056 51.2 0 0 0 0 0 0v0h512v51.2h-409.6z" />
<glyph unicode="&#xe923;" glyph-name="phone" d="M809.283 325.668c-20.964 21.828-46.25 33.499-73.049 33.499-26.583 0-52.085-11.454-73.914-33.283l-68.295-68.078c-5.619 3.026-11.238 5.835-16.641 8.645-7.78 3.89-15.129 7.564-21.396 11.454-63.972 40.631-122.109 93.581-177.869 162.092-27.015 34.147-45.17 62.892-58.353 92.068 17.722 16.209 34.147 33.067 50.14 49.276 6.051 6.051 12.103 12.319 18.154 18.37 45.386 45.386 45.386 104.171 0 149.557l-59.001 59.001c-6.7 6.7-13.616 13.616-20.099 20.532-12.967 13.4-26.583 27.231-40.631 40.199-20.964 20.748-46.034 31.77-72.401 31.77s-51.869-11.022-73.482-31.77c-0.216-0.216-0.216-0.216-0.432-0.432l-73.482-74.13c-27.664-27.664-43.441-61.379-46.899-100.497-5.187-63.108 13.4-121.893 27.664-160.363 35.012-94.445 87.313-181.975 165.333-275.772 94.662-113.032 208.558-202.29 338.664-265.182 49.708-23.557 116.058-51.437 190.188-56.192 4.539-0.216 9.293-0.432 13.616-0.432 49.924 0 91.852 17.938 124.703 53.598 0.216 0.432 0.648 0.648 0.864 1.081 11.238 13.616 24.206 25.935 37.821 39.118 9.293 8.861 18.803 18.154 28.096 27.88 21.396 22.261 32.634 48.195 32.634 74.778 0 26.799-11.454 52.518-33.283 74.13l-118.651 119.083zM886.654 98.092c-0.216 0-0.216-0.216 0 0-8.429-9.077-17.074-17.29-26.367-26.367-14.048-13.4-28.312-27.448-41.712-43.224-21.828-23.341-47.547-34.363-81.262-34.363-3.242 0-6.7 0-9.942 0.216-64.188 4.106-123.838 29.176-168.575 50.573-122.325 59.217-229.738 143.289-318.996 249.837-73.698 88.826-122.974 170.953-155.608 259.131-20.099 53.814-27.448 95.742-24.206 135.293 2.161 25.286 11.887 46.25 29.825 64.188l73.698 73.698c10.59 9.942 21.828 15.345 32.851 15.345 13.616 0 24.638-8.213 31.554-15.129 0.216-0.216 0.432-0.432 0.648-0.648 13.183-12.319 25.719-25.070 38.902-38.686 6.7-6.916 13.616-13.832 20.532-20.964l59.001-59.001c22.909-22.909 22.909-44.089 0-66.998-6.268-6.268-12.319-12.535-18.587-18.587-18.154-18.587-35.444-35.876-54.247-52.734-0.432-0.432-0.864-0.648-1.081-1.081-18.587-18.587-15.129-36.741-11.238-49.060 0.216-0.648 0.432-1.297 0.648-1.945 15.345-37.173 36.957-72.185 69.807-113.896l0.216-0.216c59.65-73.482 122.541-130.754 191.917-174.627 8.861-5.619 17.938-10.158 26.583-14.48 7.78-3.89 15.129-7.564 21.396-11.454 0.864-0.432 1.729-1.081 2.593-1.513 7.348-3.674 14.264-5.403 21.396-5.403 17.938 0 29.176 11.238 32.851 14.912l73.914 73.914c7.348 7.348 19.019 16.209 32.634 16.209 13.4 0 24.422-8.429 31.122-15.777 0.216-0.216 0.216-0.216 0.432-0.432l119.083-119.083c22.261-22.044 22.261-44.737 0.216-67.646zM553.394 716.417c56.624-9.509 108.061-36.309 149.124-77.372s67.646-92.5 77.372-149.124c2.377-14.264 14.696-24.206 28.744-24.206 1.729 0 3.242 0.216 4.971 0.432 15.993 2.593 26.583 17.722 23.99 33.715-11.671 68.511-44.089 130.97-93.581 180.462s-111.951 81.91-180.462 93.581c-15.993 2.593-30.905-7.997-33.715-23.773s7.564-31.122 23.557-33.715zM1022.811 508.292c-19.235 112.816-72.401 215.474-154.095 297.168s-184.352 134.86-297.168 154.095c-15.777 2.81-30.689-7.997-33.499-23.773-2.593-15.993 7.997-30.905 23.99-33.715 100.713-17.074 192.565-64.837 265.614-137.67 73.049-73.049 120.596-164.901 137.67-265.614 2.377-14.264 14.696-24.206 28.744-24.206 1.729 0 3.242 0.216 4.971 0.432 15.777 2.377 26.583 17.506 23.773 33.283z" />
<glyph unicode="&#xe925;" glyph-name="prew" d="M247.746 420.409l472.864-472.864c15.47-15.47 40.406-15.47 55.645 0 15.47 15.47 15.47 40.406 0 55.645l-444.926 444.926 444.926 445.157c14.777 15.239 14.777 39.482 0 54.721-15.008 15.701-40.175 16.162-55.645 0.924l-472.864-472.864c-15.47-15.47-15.47-40.406 0-55.645z" />
<glyph unicode="&#xe926;" glyph-name="responce-design" d="M954.368 558.592c-12.288-26.624-20.48-32.768-51.2-32.768-36.864 0-75.776 0-112.64 0-30.72 0-45.056 16.384-45.056 45.056 0 63.488 0 124.928 0 188.416 0 4.096 0 6.144 0 12.288-4.096 0-6.144 0-10.24 0-63.488 0-126.976 0-192.512 0-20.48 0-28.672-8.192-28.672-28.672 0-126.976 0-251.904 0-378.88 0-20.48 8.192-28.672 26.624-28.672 90.112 0 178.176 0 268.288 0 18.432 0 26.624 8.192 26.624 26.624 0 34.816 0 69.632 0 104.448 0 2.048 0 6.144 0 8.192 2.048 8.192 6.144 12.288 12.288 12.288s12.288-4.096 12.288-10.24c0-2.048 0-6.144 0-8.192 0-34.816 0-69.632 0-106.496 0-34.816-18.432-53.248-53.248-53.248-6.144 0-12.288 0-18.432 0 0-59.392 0-118.784 0-178.176 4.096 0 8.192 0 14.336 0 22.528 0 38.912-18.432 40.96-40.96 0-10.24 0-22.528 0-32.768 0-20.48-18.432-36.864-38.912-38.912-2.048 0-6.144 0-8.192 0-188.416 0-376.832 0-565.248 0-2.048 0-6.144 0-8.192 0-8.192 0-12.288 6.144-12.288 12.288s4.096 12.288 12.288 12.288c4.096 0 6.144 0 10.24 0 188.416 0 374.784 0 563.2 0 18.432 0 20.48 4.096 20.48 20.48 0 8.192 0 14.336 0 22.528 0 10.24-6.144 14.336-16.384 16.384 0 0-2.048 0-2.048 0-86.016 0-172.032 0-258.048 0-2.048 0-6.144 0-8.192 0 0-4.096-2.048-10.24-2.048-14.336-6.144-20.48-24.576-32.768-45.056-32.768-24.576 0-47.104 0-71.68 0-28.672 0-45.056 16.384-49.152 43.008 0 2.048 0 2.048 0 4.096-4.096 0-6.144 0-10.24 0-83.968 0-169.984 0-253.952 0-16.384 0-20.48-4.096-20.48-20.48 0-6.144 0-14.336 0-20.48 0-12.288 4.096-18.432 16.384-18.432 20.48 0 38.912 0 59.392 0 10.24 0 16.384-6.144 16.384-14.336s-6.144-12.288-16.384-12.288c-16.384 0-34.816 0-51.2 0-24.576-2.048-43.008 8.192-51.2 32.768 0 16.384 0 32.768 0 49.152 8.192 18.432 20.48 30.72 43.008 30.72 4.096 0 6.144 0 12.288 0 0 4.096 0 6.144 0 10.24 0 114.688 0 229.376 0 344.064 0 49.152 30.72 81.92 81.92 81.92 79.872 0 159.744 0 239.616 0 4.096 0 6.144 0 10.24 0 6.144-2.048 10.24-6.144 8.192-14.336 0-6.144-4.096-10.24-10.24-12.288-4.096 0-6.144 0-10.24 0-79.872 0-159.744 0-239.616 0-34.816 0-55.296-20.48-55.296-55.296 0-114.688 0-229.376 0-344.064 0-4.096 0-6.144 0-10.24 210.944 0 419.84 0 628.736 0 0 59.392 0 118.784 0 178.176-4.096 0-6.144 0-10.24 0-71.68 0-141.312 0-212.992 0-24.576 0-43.008 12.288-49.152 34.816-2.048 6.144-2.048 12.288-2.048 18.432 0 126.976 0 253.952 0 380.928 0 32.768 20.48 53.248 53.248 53.248 63.488 0 126.976 0 190.464 0 4.096 0 6.144 0 10.24 0 0 12.288 0 22.528 0 34.816 0 28.672 16.384 45.056 45.056 45.056 36.864 0 75.776 0 112.64 0 24.576 0 43.008-8.192 51.2-32.768 4.096-92.16 4.096-188.416 4.096-282.624zM772.096 699.904c0-43.008 0-88.064 0-131.072 0-14.336 4.096-18.432 18.432-18.432 40.96 0 79.872 0 120.832 0 12.288 0 18.432 4.096 18.432 18.432 0 88.064 0 176.128 0 262.144 0 12.288-4.096 18.432-18.432 18.432-40.96 0-79.872 0-120.832 0-14.336 0-18.432-4.096-18.432-18.432 0-43.008 0-86.016 0-131.072zM507.904 103.936c-38.912 0-75.776 0-112.64 0 0-12.288 8.192-20.48 18.432-20.48 24.576 0 49.152 0 73.728 0 12.288 0 18.432 6.144 20.48 20.48zM337.92 484.864c12.288 0 16.384-6.144 18.432-16.384 18.432-51.2 38.912-104.448 59.392-155.648 8.192-22.528 16.384-43.008 24.576-65.536 4.096-10.24-2.048-18.432-10.24-18.432-6.144 0-12.288 4.096-14.336 10.24-4.096 14.336-10.24 26.624-14.336 40.96-2.048 4.096-6.144 4.096-10.24 4.096-34.816 0-71.68 0-106.496 0-6.144 0-8.192-2.048-10.24-6.144-4.096-12.288-10.24-24.576-14.336-36.864-4.096-10.24-10.24-14.336-18.432-10.24-8.192 2.048-10.24 10.24-6.144 20.48 28.672 73.728 55.296 147.456 83.968 221.184 4.096 6.144 8.192 12.288 18.432 12.288zM387.072 312.832c-16.384 43.008-32.768 86.016-49.152 131.072-16.384-45.056-32.768-88.064-51.2-131.072 34.816 0 67.584 0 100.352 0zM753.664 480.768c0-8.192-4.096-12.288-10.24-14.336s-12.288 2.048-14.336 8.192c-4.096 8.192-6.144 16.384-10.24 24.576-2.048 2.048-6.144 6.144-8.192 6.144-22.528 0-43.008 0-65.536 0-4.096 0-8.192-2.048-8.192-6.144-2.048-8.192-6.144-16.384-8.192-22.528-4.096-8.192-10.24-12.288-16.384-10.24-8.192 2.048-10.24 10.24-8.192 18.432 20.48 51.2 38.912 102.4 59.392 155.648 2.048 8.192 8.192 12.288 16.384 12.288s12.288-4.096 16.384-12.288c20.48-51.2 38.912-102.4 59.392-155.648-4.096 0-2.048-2.048-2.048-4.096zM677.888 607.744c0 0-2.048 0-2.048 0-8.192-24.576-18.432-49.152-28.672-73.728 20.48 0 38.912 0 57.344 0-8.192 24.576-16.384 49.152-26.624 73.728zM677.888 439.808c22.528 0 43.008-18.432 43.008-40.96s-18.432-43.008-43.008-43.008c-22.528 0-43.008 18.432-43.008 43.008 0 22.528 18.432 40.96 43.008 40.96zM677.888 382.464c8.192 0 16.384 6.144 16.384 16.384 0 8.192-6.144 16.384-14.336 16.384s-16.384-6.144-16.384-16.384c-2.048-8.192 4.096-16.384 14.336-16.384zM675.84 726.528c-10.24 0-22.528 0-32.768 0-8.192 0-14.336 4.096-14.336 12.288s4.096 14.336 14.336 14.336c22.528 0 45.056 0 67.584 0 8.192 0 14.336-6.144 14.336-12.288 0-8.192-6.144-12.288-14.336-12.288-14.336-2.048-24.576-2.048-34.816-2.048zM849.92 712.192c-4.096-8.192-6.144-18.432-10.24-26.624-4.096-10.24-10.24-14.336-18.432-10.24-8.192 2.048-10.24 10.24-6.144 20.48 6.144 18.432 14.336 36.864 20.48 55.296 2.048 6.144 6.144 12.288 14.336 12.288s12.288-4.096 14.336-12.288c6.144-18.432 14.336-36.864 20.48-55.296 4.096-10.24 0-16.384-6.144-20.48-8.192-2.048-14.336 2.048-18.432 10.24-2.048 8.192-6.144 16.384-10.24 26.624 2.048-2.048 0-2.048 0 0zM849.92 599.552c6.144 0 12.288-6.144 12.288-12.288 0-8.192-6.144-14.336-12.288-14.336s-14.336 6.144-14.336 12.288c2.048 8.192 8.192 14.336 14.336 14.336z" />
<glyph unicode="&#xe927;" glyph-name="right-arrow" d="M598.064 759.168c-12.784 12.176-33.056 11.696-45.232-1.104-12.192-12.8-11.68-33.056 1.104-45.248l245.472-232.816h-639.408c-17.664 0-32-14.336-32-32s14.336-32 32-32h638.384l-244.448-232.832c-12.8-12.192-13.296-32.448-1.104-45.248 6.288-6.592 14.72-9.92 23.168-9.92 7.936 0 15.872 2.928 22.064 8.832l279.184 265.92c12.096 12.080 18.752 28.144 18.752 45.248s-6.656 33.168-19.312 45.792z" />
<glyph unicode="&#xe928;" glyph-name="rocket" d="M1010.147 921.312c-2.438 11.219-13.5 22.281-24.687 24.688-65.258 14-116.324 14-167.14 14-207.519 0-332.402-110.188-425.847-256h-202.832c-32.691-0.031-71.066-23.75-85.758-52.969l-98.82-197.625c-2.941-6.272-4.777-13.591-5.060-21.306l-0.003-0.1c0.007-26.508 21.496-47.995 48.003-48h185.266l-21.187-42.844c-18.672-37.82 8.555-69.551 12.312-73.25l107.508-107.437c3.707-3.727 35.578-30.957 73.258-12.281l42.754 21.156v-185.344c0.167-26.444 21.56-47.835 47.988-48h0.016c7.763 0.302 15.025 2.136 21.594 5.207l-0.344-0.144 197.457 98.781c29.25 14.625 53.004 53 53.004 85.719v203.031c145.574 93.531 256.335 218.906 256.335 425.406 0.187 51.063 0.187 102-13.816 167.313zM73.883 448l87.195 174.406c4.937 9.656 17.687 17.563 28.562 17.594h170.39c-27.879-56.125-63.441-128-95.133-192zM703.686 125.625c-0.063-10.875-8.004-23.688-17.754-28.531l-174.015-87.094v191.031c64.008 31.656 135.636 67.188 191.769 95.094zM732.936 382.187c-79.008-39.563-271.773-134.875-355.843-176.469l-107.633 107.094c41.754 84.469 137.074 277.188 176.453 356.375 100.445 156.813 215.394 226.813 372.406 226.813 43.066 0 84.008 0 133.261-8.594 8.687-49.719 8.5-90.406 8.375-133.375 0-156.156-70.004-270.937-227.019-371.844zM735.979 783.941c-0.002 0-0.004 0-0.006 0-61.851 0-111.99-50.14-111.99-111.99s50.14-111.99 111.99-111.99c61.851 0 111.99 50.14 111.99 111.99 0 0.001 0 0.001 0 0.002v0c-0.026 61.838-50.147 111.96-111.981 111.988h-0.003zM735.979 623.957c-0.001 0-0.003 0-0.004 0-26.507 0-47.996 21.489-47.996 47.996s21.489 47.996 47.996 47.996c26.507 0 47.996-21.489 47.996-47.996v0c-0.028-26.495-21.498-47.966-47.989-47.996h-0.003z" />
<glyph unicode="&#xe92a;" glyph-name="share-alt" d="M768 320c-57.2 0-108.4-25-143.6-64.6l-191 119.4c19.2 46.8 19.4 99.6 0 146.4l191 119.4c35.2-39.6 86.4-64.6 143.6-64.6 106 0 192 86 192 192s-86 192-192 192-192-86-192-192c0-26 5.2-50.6 14.4-73.2l-191-119.4c-35 39.6-86.2 64.6-143.4 64.6-106 0-192-86-192-192s86-192 192-192c57.2 0 108.4 25 143.6 64.6l191-119.4c-9.4-22.6-14.4-47.2-14.4-73.2 0-106 86-192 192-192s192 86 192 192c-0.2 106-86.2 192-192.2 192zM768 896c70.6 0 128-57.4 128-128s-57.4-128-128-128-128 57.4-128 128 57.4 128 128 128zM256 320c-70.6 0-128 57.4-128 128s57.4 128 128 128 128-57.4 128-128-57.4-128-128-128zM768 0c-70.6 0-128 57.4-128 128s57.4 128 128 128 128-57.4 128-128-57.4-128-128-128z" />
<glyph unicode="&#xe92b;" glyph-name="sign-in-alt" d="M64 525.8c0 17.6 14.4 32 32 32h288v187.8c0 14.2 17.2 21.4 27.2 11.4l283.2-286.2c12.6-12.6 12.6-32.8 0-45.4l-283.2-286.2c-10-10-27.2-3-27.2 11.4v187.8h-288c-17.6 0-32 14.4-32 32v155.4zM0 525.8v-155.4c0-53 43-96 96-96h224v-123.8c0-71 86-107 136.4-56.6l283.4 286c37.6 37.6 37.6 98.4 0 136l-283.4 286.2c-50.2 50.2-136.4 14.6-136.4-56.6v-123.8h-224c-53 0-96-43.2-96-96zM1024 160v576c0 53-43 96-96 96h-264c-13.2 0-24-10.8-24-24v-16c0-13.2 10.8-24 24-24h264c17.6 0 32-14.4 32-32v-576c0-17.6-14.4-32-32-32h-264c-13.2 0-24-10.8-24-24v-16c0-13.2 10.8-24 24-24h264c53 0 96 43 96 96z" />
<glyph unicode="&#xe92c;" glyph-name="sign-out-alt" d="M320 525.8c0 17.6 14.4 32 32 32h288v187.8c0 14.2 17.2 21.4 27.2 11.4l283.2-286.2c12.6-12.6 12.6-32.8 0-45.4l-283.2-286.2c-10-10-27.2-3-27.2 11.4v187.8h-288c-17.6 0-32 14.4-32 32v155.4zM256 525.8v-155.4c0-53 43-96 96-96h224v-123.8c0-71 86-107 136.4-56.6l283.4 286c37.6 37.6 37.6 98.4 0 136l-283.4 286.2c-50.2 50.2-136.4 14.6-136.4-56.6v-123.8h-224c-53 0-96-43.2-96-96zM0 736v-576c0-53 43-96 96-96h264c13.2 0 24 10.8 24 24v16c0 13.2-10.8 24-24 24h-264c-17.6 0-32 14.4-32 32v576c0 17.6 14.4 32 32 32h264c13.2 0 24 10.8 24 24v16c0 13.2-10.8 24-24 24h-264c-53 0-96-43-96-96z" />
<glyph unicode="&#xe92e;" glyph-name="times-circle" d="M512 944c-274 0-496-222-496-496s222-496 496-496 496 222 496 496-222 496-496 496zM512 16c-237.4 0-432 192.2-432 432 0 237.4 192.2 432 432 432 237.4 0 432-192.2 432-432 0-237.4-192.2-432-432-432zM701.6 586.6l-138.6-138.6 138.6-138.6c9.4-9.4 9.4-24.6 0-34l-17-17c-9.4-9.4-24.6-9.4-34 0l-138.6 138.6-138.6-138.6c-9.4-9.4-24.6-9.4-34 0l-17 17c-9.4 9.4-9.4 24.6 0 34l138.6 138.6-138.6 138.6c-9.4 9.4-9.4 24.6 0 34l17 17c9.4 9.4 24.6 9.4 34 0l138.6-138.6 138.6 138.6c9.4 9.4 24.6 9.4 34 0l17-17c9.2-9.4 9.2-24.6 0-34z" />
<glyph unicode="&#xe92f;" glyph-name="times" d="M579.88 448l247.42 247.42c6.24 6.24 6.24 16.38 0 22.62l-45.26 45.26c-6.24 6.24-16.38 6.24-22.62 0l-247.42-247.42-247.42 247.44c-6.24 6.24-16.38 6.24-22.62 0l-45.28-45.26c-6.24-6.24-6.24-16.38 0-22.62l247.44-247.44-247.44-247.42c-6.24-6.24-6.24-16.38 0-22.62l45.26-45.26c6.24-6.24 16.38-6.24 22.62 0l247.44 247.42 247.42-247.42c6.24-6.24 16.38-6.24 22.62 0l45.26 45.26c6.24 6.24 6.24 16.38 0 22.62l-247.42 247.42z" />
<glyph unicode="&#xe930;" glyph-name="trophy1" d="M796.444 789.333v92.444c0 11.733-9.6 21.333-21.333 21.333h-526.222c-11.733 0-21.333-9.6-21.333-21.333v-92.444h-206.222c-11.733 0-21.333-9.6-21.333-21.333v-109.511c0-110.4 121.067-238.933 285.689-263.289 52.267-107.911 131.022-160.533 197.867-172.267v-173.156h-152.889c-25.6 0-46.222-20.8-46.222-46.4 0-5.867 4.8-10.489 10.667-10.489h433.778c5.867 0 10.667 4.622 10.667 10.489 0 25.6-20.622 46.4-46.222 46.4h-152.889v173.156c67.022 11.733 145.6 64.356 197.867 172.267 164.8 24.356 285.689 153.067 285.689 263.289v109.511c0 11.733-9.6 21.333-21.333 21.333h-206.222zM56.889 658.489v73.956h170.667v-42.667c0-92.089 12.444-168.711 32.889-231.467-121.956 31.467-203.556 128.356-203.556 200.178zM512 277.333c-128 0-227.556 184.889-227.556 412.444v156.444h455.111v-156.444c0-227.556-99.556-412.444-227.556-412.444zM967.111 658.489c0-71.822-81.778-168.711-203.556-200.178 20.444 62.756 32.889 139.378 32.889 231.467v42.667h170.667v-73.956z" />
<glyph unicode="&#xe931;" glyph-name="UI-design" d="M698.368 878.080c4.096-2.048 10.24-2.048 14.336-4.096 26.624-10.24 43.008-34.816 43.008-67.584 0-94.208 0-188.416 0-282.624 0-24.576 0-49.152 0-73.728 0-4.096 0-8.192-2.048-10.24-4.096-4.096-8.192-8.192-12.288-8.192-6.144 0-10.24 4.096-10.24 10.24 0 4.096 0 6.144 0 10.24 0 116.736 0 235.52 0 352.256 0 24.576-12.288 43.008-36.864 47.104-16.384 2.048-34.816 0-53.248 0-2.048 0-4.096-2.048-4.096-4.096-2.048-8.192-2.048-16.384-4.096-24.576-6.144-26.624-28.672-47.104-55.296-47.104-57.344 0-112.64 0-169.984 0-26.624 0-49.152 18.432-55.296 45.056-2.048 10.24-4.096 20.48-6.144 30.72-18.432 0-36.864 2.048-53.248 0-20.48-2.048-36.864-20.48-36.864-40.96 0-2.048 0-4.096 0-4.096 0-237.568 0-473.088 0-710.656 0-24.576 14.336-40.96 34.816-45.056 4.096 0 6.144 0 10.24 0 129.024 0 256 0 385.024 0 26.624 0 45.056 18.432 45.056 43.008 0 36.864 0 75.776 0 112.64 0 2.048 0 2.048 0 4.096-4.096 0-6.144 0-10.24 0-22.528 0-43.008 0-65.536 0-16.384 0-30.72 6.144-38.912 20.48-2.048 2.048-4.096 4.096-6.144 4.096-65.536 0-131.072 0-196.608 0-2.048 0-6.144-2.048-6.144-4.096-8.192-18.432-24.576-26.624-45.056-26.624 0-12.288 0-24.576 0-36.864 0-8.192 6.144-12.288 16.384-12.288 14.336 0 28.672 0 40.96 0 10.24 0 16.384-4.096 14.336-12.288 0-8.192-6.144-12.288-16.384-12.288-14.336 0-28.672 0-43.008 0-22.528 0-38.912 16.384-38.912 38.912 0 12.288 0 22.528 0 34.816-6.144 0-10.24 2.048-16.384 2.048-20.48 6.144-32.768 22.528-30.72 43.008s16.384 36.864 38.912 36.864c14.336 0 28.672 0 43.008 0 16.384 0 26.624-8.192 34.816-22.528 2.048-2.048 4.096-6.144 6.144-6.144 16.384 0 34.816 0 51.2 0 2.048 0 4.096 0 8.192 0 0 14.336 0 26.624 0 40.96 0 6.144 0 12.288 0 18.432 0 24.576 16.384 40.96 40.96 40.96 30.72 0 61.44 0 92.16 0 2.048 0 6.144 0 10.24 0 0 2.048 2.048 4.096 2.048 6.144 6.144 16.384 20.48 26.624 38.912 26.624 61.44 0 120.832 0 182.272 0 22.528 0 40.96-18.432 40.96-40.96s-18.432-40.96-40.96-40.96c-22.528 0-45.056 0-69.632 0-2.048 0-6.144 0-10.24 0 0-6.144 0-10.24 0-16.384 4.096 0 6.144 0 10.24 0 22.528 0 45.056 0 67.584 0 24.576 0 43.008-18.432 43.008-40.96 0-24.576-18.432-40.96-43.008-40.96s-49.152 0-75.776 0c0-4.096 0-6.144 0-8.192 0-34.816 0-69.632 0-104.448 0-45.056-28.672-73.728-73.728-73.728-126.976 0-251.904 0-378.88 0-45.056 0-73.728 28.672-73.728 73.728 0 235.52 0 468.992 0 704.512 0 40.96 18.432 63.488 57.344 73.728 0 0 0 0 2.048 0 131.072 2.048 268.288 2.048 405.504 2.048zM729.088 312.832c-4.096 0-6.144 0-10.24 0-22.528 0-45.056 0-65.536 0-16.384 0-28.672 6.144-36.864 20.48-2.048 2.048-4.096 4.096-6.144 4.096-32.768 0-65.536 0-100.352 0-10.24 0-14.336-6.144-14.336-16.384 0-18.432 0-34.816 0-53.248 0-2.048 0-4.096 0-6.144 36.864 0 73.728 0 112.64 0 2.048 0 4.096 2.048 6.144 4.096 8.192 18.432 22.528 26.624 43.008 26.624 22.528 0 43.008 0 65.536 0 2.048 0 6.144 0 10.24 0-4.096 8.192-4.096 14.336-4.096 20.48zM372.736 853.504c2.048-10.24 4.096-18.432 6.144-26.624 4.096-14.336 16.384-24.576 30.72-24.576 55.296 0 112.64 0 167.936 0 12.288 0 22.528 6.144 28.672 18.432 4.096 10.24 6.144 22.528 8.192 32.768-81.92 0-161.792 0-241.664 0zM743.424 337.408c16.384 0 32.768 0 49.152 0 14.336 0 28.672 0 43.008 0 10.24 0 16.384 8.192 16.384 16.384s-6.144 16.384-16.384 16.384c-2.048 0-2.048 0-4.096 0-57.344 0-116.736 0-174.080 0-2.048 0-4.096 0-6.144 0-8.192-2.048-14.336-8.192-14.336-16.384s4.096-14.336 14.336-16.384c2.048 0 6.144 0 8.192 0 26.624 0 55.296 0 83.968 0zM743.424 237.056c30.72 0 61.44 0 90.112 0 10.24 0 16.384 8.192 16.384 16.384s-6.144 16.384-16.384 16.384c-2.048 0-4.096 0-6.144 0-57.344 0-112.64 0-169.984 0-2.048 0-6.144 0-8.192 0-8.192-2.048-14.336-8.192-12.288-18.432 0-8.192 8.192-14.336 18.432-14.336 28.672 0 57.344 0 88.064 0zM348.16 265.728c0 0 0 0 0 0-6.144 0-12.288 0-18.432 0 0 0-2.048 0-2.048 0-10.24 0-16.384-8.192-16.384-16.384s6.144-16.384 16.384-16.384c12.288 0 24.576 0 36.864 0 10.24 0 16.384 8.192 16.384 16.384s-6.144 16.384-16.384 16.384c-4.096 0-10.24 0-16.384 0zM593.92 615.936c4.096 6.144 10.24 12.288 14.336 18.432 14.336 18.432 28.672 38.912 43.008 57.344 2.048 2.048 2.048 4.096 4.096 4.096 6.144 6.144 12.288 6.144 18.432 2.048s6.144-12.288 2.048-18.432c-8.192-12.288-18.432-24.576-26.624-36.864-12.288-16.384-24.576-32.768-36.864-51.2 4.096-6.144 10.24-12.288 14.336-18.432 20.48-26.624 38.912-51.2 59.392-77.824 2.048-2.048 4.096-4.096 4.096-6.144 2.048-6.144 2.048-10.24-2.048-14.336s-10.24-4.096-16.384 0c-2.048 2.048-4.096 4.096-6.144 6.144-20.48 26.624-40.96 55.296-61.44 81.92-2.048 2.048-4.096 6.144-6.144 8.192-4.096-4.096-6.144-8.192-8.192-12.288-18.432-24.576-36.864-49.152-57.344-75.776 0-2.048-2.048-2.048-2.048-4.096-6.144-6.144-12.288-8.192-18.432-2.048-6.144 4.096-6.144 12.288-2.048 18.432 6.144 8.192 12.288 18.432 20.48 26.624 16.384 22.528 34.816 45.056 53.248 69.632-6.144 10.24-14.336 18.432-20.48 28.672-14.336 18.432-28.672 36.864-43.008 55.296-6.144 8.192-6.144 16.384 0 20.48s12.288 2.048 18.432-6.144c16.384-20.48 34.816-47.104 55.296-73.728zM460.8 613.888c0-18.432 0-38.912 0-57.344 0-38.912-20.48-65.536-57.344-77.824-45.056-14.336-96.256 14.336-104.448 57.344 0 4.096-2.048 8.192-2.048 12.288 0 45.056 0 90.112 0 135.168 0 10.24 4.096 16.384 12.288 16.384s12.288-6.144 12.288-16.384c0-43.008 2.048-86.016 0-129.024-2.048-32.768 32.768-57.344 61.44-55.296 14.336 2.048 26.624 6.144 38.912 16.384 10.24 8.192 14.336 20.48 14.336 34.816 0 43.008 0 86.016 0 129.024 0 2.048 0 4.096 0 6.144 0 8.192 6.144 14.336 12.288 14.336 8.192 0 12.288-6.144 12.288-14.336 0-20.48 0-40.96 0-61.44 0-2.048 0-6.144 0-10.24zM561.152 105.984c-16.384 0-34.816 0-51.2 0-24.576 0-43.008 18.432-43.008 40.96s18.432 40.96 40.96 40.96c34.816 0 69.632 0 104.448 0 24.576 0 40.96-18.432 40.96-40.96s-18.432-40.96-40.96-40.96c-16.384 0-34.816 0-51.2 0zM561.152 130.56c16.384 0 32.768 0 51.2 0 10.24 0 18.432 6.144 18.432 16.384s-6.144 16.384-18.432 16.384c-34.816 0-67.584 0-102.4 0-10.24 0-18.432-6.144-18.432-16.384s8.192-16.384 18.432-16.384c16.384 0 34.816 0 51.2 0zM688.128 812.544c0-6.144-6.144-12.288-12.288-12.288s-12.288 6.144-12.288 12.288c0 6.144 6.144 12.288 12.288 12.288 8.192 0 12.288-6.144 12.288-12.288zM491.52 812.544c-8.192 0-16.384 0-22.528 0-8.192 0-12.288 4.096-12.288 12.288s4.096 12.288 12.288 12.288c16.384 0 32.768 0 49.152 0 8.192 0 12.288-6.144 12.288-12.288 0-8.192-4.096-12.288-12.288-12.288-10.24 0-18.432 0-26.624 0z" />
<glyph unicode="&#xe932;" glyph-name="video1" d="M966.933 732.444c-11.022 0-22.222-3.2-32.356-10.133l-195.022-124.267v106.311c0 46.933-41.244 84.978-92.089 84.978h-555.378c-50.844 0-92.089-38.044-92.089-84.978v-512.711c0-46.933 41.244-84.978 92.089-84.978h555.378c50.844 0 92.089 38.044 92.089 84.978v106.311l194.844-124.267c10.133-7.111 21.511-10.133 32.356-10.133 29.511 0 57.067 23.111 57.067 56v456.889c0.178 32.889-27.378 56-56.889 56zM682.667 191.644c0-15.289-16.178-28.089-35.2-28.089h-555.378c-19.022 0-35.2 12.8-35.2 28.089v512.711c0 15.289 16.178 28.089 35.2 28.089h555.378c19.022 0 35.2-12.8 35.2-28.089v-512.711zM967.111 219.556l-2.133 2.311-225.422 143.644v165.156l227.556 144.889v-456z" />
<glyph unicode="&#xe933;" glyph-name="web-design1" d="M960.512 255.488c-6.144-18.432-16.384-34.816-36.864-38.912-6.144-2.048-10.24-2.048-16.384-2.048-90.112 0-180.224 0-270.336 0-4.096 0-6.144 0-12.288 0 4.096-18.432 6.144-34.816 10.24-51.2 8.192-36.864 16.384-73.728 22.528-110.592 4.096-14.336-2.048-20.48-16.384-20.48-81.92 0-163.84 0-243.712 0-14.336 0-20.48 6.144-16.384 20.48 10.24 51.2 20.48 100.352 32.768 151.552 0 2.048 0 6.144 2.048 10.24-4.096 0-8.192 0-10.24 0-96.256 0-190.464 0-286.72 0-34.816 0-53.248 20.48-53.248 53.248 0 176.128 0 352.256 0 530.432 0 30.72 20.48 55.296 55.296 55.296 20.48-2.048 43.008 0 63.488 0 10.24 0 16.384-4.096 16.384-12.288s-6.144-14.336-16.384-14.336c-22.528 0-43.008 0-65.536 0-16.384 0-24.576-8.192-24.576-24.576 0-24.576 0-47.104 0-71.68 4.096 0 8.192 0 10.24 0 79.872 0 159.744 0 241.664 0 2.048 0 6.144 0 8.192 0 6.144-2.048 10.24-6.144 10.24-12.288s-4.096-12.288-10.24-12.288c-4.096 0-6.144 0-10.24 0-79.872 0-161.792 0-241.664 0-2.048 0-6.144 0-8.192 0 0-116.736 0-231.424 0-348.16 280.576 0 561.152 0 841.728 0 0 114.688 0 231.424 0 348.16-4.096 0-6.144 0-10.24 0-172.032 0-342.016 0-514.048 0-14.336 0-20.48 4.096-20.48 12.288 0 10.24 6.144 14.336 20.48 14.336 169.984 0 342.016 0 512 0 4.096 0 8.192 0 12.288 0 0 2.048 0 6.144 0 8.192 0 20.48 0 40.96 0 61.44 0 18.432-8.192 26.624-26.624 26.624-217.088 0-434.176 0-649.216 0-4.096 0-8.192 0-12.288 0-6.144 2.048-10.24 6.144-10.24 14.336 0 6.144 4.096 10.24 12.288 12.288 4.096 0 6.144 0 10.24 0 212.992 0 428.032 0 641.024 0 30.72 0 53.248-8.192 63.488-38.912-4.096-188.416-4.096-374.784-4.096-561.152zM90.112 329.216c0-20.48 0-40.96 0-61.44 0-16.384 8.192-24.576 26.624-24.576 264.192 0 528.384 0 792.576 0 16.384 0 24.576 8.192 24.576 24.576 0 18.432 0 36.864 0 55.296 0 2.048 0 4.096 0 6.144-280.576 0-561.152 0-843.776 0zM409.6 60.928c73.728 0 147.456 0 221.184 0-10.24 51.2-22.528 104.448-32.768 155.648-53.248 0-104.448 0-155.648 0-10.24-53.248-22.528-104.448-32.768-155.648zM370.688 585.216c28.672-2.048 51.2-12.288 69.632-34.816 4.096-4.096 6.144-6.144 12.288-4.096 108.544 24.576 217.088 49.152 323.584 71.68 30.72 6.144 59.392-12.288 63.488-43.008 4.096-28.672-16.384-55.296-47.104-59.392-77.824-10.24-157.696-18.432-235.52-28.672-30.72-4.096-61.44-8.192-92.16-10.24-6.144 0-8.192-2.048-10.24-8.192-16.384-49.152-61.44-71.68-110.592-55.296-36.864 10.24-69.632 30.72-102.4 51.2-8.192 4.096-10.24 12.288-4.096 20.48 26.624 34.816 55.296 69.632 96.256 92.16 10.24 6.144 20.48 10.24 32.768 10.24 2.048-2.048 4.096 0 4.096-2.048zM458.752 503.296c4.096 0 6.144 0 8.192 0 106.496 12.288 215.040 26.624 321.536 38.912 16.384 2.048 26.624 14.336 24.576 28.672-2.048 16.384-16.384 24.576-32.768 20.48-94.208-20.48-186.368-40.96-280.576-63.488-14.336-4.096-30.72-6.144-45.056-10.24 2.048-4.096 4.096-8.192 4.096-14.336zM301.056 462.336c0-2.048 2.048-2.048 2.048-2.048 18.432-8.192 36.864-16.384 57.344-22.528s38.912 0 53.248 14.336c20.48 18.432 26.624 53.248 12.288 73.728-30.72-47.104-75.776-57.344-124.928-63.488zM278.528 488.96c0-2.048 0-2.048 2.048-4.096 20.48 4.096 40.96 6.144 61.44 10.24 18.432 4.096 34.816 12.288 49.152 26.624 6.144 6.144 12.288 16.384 18.432 22.528-18.432 14.336-40.96 16.384-57.344 8.192-32.768-14.336-53.248-38.912-73.728-63.488z" />
<glyph unicode="&#xe96e;" glyph-name="bubble2" d="M512 768c-54.932 0-107.988-8.662-157.694-25.742-46.712-16.054-88.306-38.744-123.628-67.444-66.214-53.798-102.678-122.984-102.678-194.814 0-40.298 11.188-79.378 33.252-116.152 22.752-37.92 56.982-72.586 98.988-100.252 30.356-19.992 50.78-51.948 56.176-87.894 1.8-11.984 2.928-24.088 3.37-36.124 7.47 6.194 14.75 12.846 21.88 19.976 24.154 24.152 56.78 37.49 90.502 37.49 5.368 0 10.762-0.336 16.156-1.024 20.974-2.666 42.398-4.020 63.676-4.020 54.934 0 107.988 8.66 157.694 25.742 46.712 16.054 88.306 38.744 123.628 67.444 66.214 53.796 102.678 122.984 102.678 194.814s-36.464 141.016-102.678 194.814c-35.322 28.698-76.916 51.39-123.628 67.444-49.706 17.080-102.76 25.742-157.694 25.742zM512 896v0c282.77 0 512-186.25 512-416 0-229.752-229.23-416-512-416-27.156 0-53.81 1.734-79.824 5.044-109.978-109.978-241.25-129.7-368.176-132.596v26.916c68.536 33.578 128 94.74 128 164.636 0 9.754-0.758 19.33-2.164 28.696-115.796 76.264-189.836 192.754-189.836 323.304 0 229.75 229.23 416 512 416z" />
<glyph unicode="&#xe992;" glyph-name="equalizer" d="M448 832v16c0 26.4-21.6 48-48 48h-160c-26.4 0-48-21.6-48-48v-16h-192v-128h192v-16c0-26.4 21.6-48 48-48h160c26.4 0 48 21.6 48 48v16h576v128h-576zM256 704v128h128v-128h-128zM832 528c0 26.4-21.6 48-48 48h-160c-26.4 0-48-21.6-48-48v-16h-576v-128h576v-16c0-26.4 21.6-48 48-48h160c26.4 0 48 21.6 48 48v16h192v128h-192v16zM640 384v128h128v-128h-128zM448 208c0 26.4-21.6 48-48 48h-160c-26.4 0-48-21.6-48-48v-16h-192v-128h192v-16c0-26.4 21.6-48 48-48h160c26.4 0 48 21.6 48 48v16h576v128h-576v16zM256 64v128h128v-128h-128z" />
<glyph unicode="&#xe9bb;" glyph-name="list2" d="M384 896h640v-128h-640v128zM384 512h640v-128h-640v128zM384 128h640v-128h-640v128zM0 832c0 70.692 57.308 128 128 128s128-57.308 128-128c0-70.692-57.308-128-128-128s-128 57.308-128 128zM0 448c0 70.692 57.308 128 128 128s128-57.308 128-128c0-70.692-57.308-128-128-128s-128 57.308-128 128zM0 64c0 70.692 57.308 128 128 128s128-57.308 128-128c0-70.692-57.308-128-128-128s-128 57.308-128 128z" />
<glyph unicode="&#xea44;" glyph-name="circle-left" d="M512-64c282.77 0 512 229.23 512 512s-229.23 512-512 512-512-229.23-512-512 229.23-512 512-512zM512 864c229.75 0 416-186.25 416-416s-186.25-416-416-416-416 186.25-416 416 186.25 416 416 416zM669.256 642.744l-90.512 90.512-285.254-285.256 285.256-285.254 90.508 90.508-194.744 194.746z" />
<glyph unicode="&#xea90;" glyph-name="facebook" d="M608 768h160v192h-160c-123.514 0-224-100.486-224-224v-96h-128v-192h128v-512h192v512h160l32 192h-192v96c0 17.346 14.654 32 32 32z" />
<glyph unicode="&#xea96;" glyph-name="twitter" d="M1024 733.6c-37.6-16.8-78.2-28-120.6-33 43.4 26 76.6 67.2 92.4 116.2-40.6-24-85.6-41.6-133.4-51-38.4 40.8-93 66.2-153.4 66.2-116 0-210-94-210-210 0-16.4 1.8-32.4 5.4-47.8-174.6 8.8-329.4 92.4-433 219.6-18-31-28.4-67.2-28.4-105.6 0-72.8 37-137.2 93.4-174.8-34.4 1-66.8 10.6-95.2 26.2 0-0.8 0-1.8 0-2.6 0-101.8 72.4-186.8 168.6-206-17.6-4.8-36.2-7.4-55.4-7.4-13.6 0-26.6 1.4-39.6 3.8 26.8-83.4 104.4-144.2 196.2-146-72-56.4-162.4-90-261-90-17 0-33.6 1-50.2 3 93.2-59.8 203.6-94.4 322.2-94.4 386.4 0 597.8 320.2 597.8 597.8 0 9.2-0.2 18.2-0.6 27.2 41 29.4 76.6 66.4 104.8 108.6z" />
<glyph unicode="&#xea98;" glyph-name="vk" d="M928 960h-832c-52.8 0-96-43.2-96-96v-832c0-52.8 43.2-96 96-96h832c52.8 0 96 43.2 96 96v832c0 52.8-43.2 96-96 96zM829.4 243.2l-93.6-1.4c0 0-20.2-4-46.6 14.2-35 24-68 86.6-93.8 78.4-26-8.2-25.2-64.4-25.2-64.4s0.2-12-5.8-18.4c-6.4-7-19.2-8.4-19.2-8.4h-41.8c0 0-92.4-5.6-173.8 79.2-88.8 92.4-167.2 275.8-167.2 275.8s-4.6 12 0.4 17.8c5.6 6.6 20.6 7 20.6 7l100.2 0.6c0 0 9.4-1.6 16.2-6.6 5.6-4 8.6-11.8 8.6-11.8s16.2-41 37.6-78c41.8-72.2 61.4-88 75.6-80.4 20.6 11.2 14.4 102.2 14.4 102.2s0.4 33-10.4 47.6c-8.4 11.4-24.2 14.8-31 15.6-5.6 0.8 3.6 13.8 15.6 19.8 18 8.8 49.8 9.4 87.4 9 29.2-0.2 37.8-2.2 49.2-4.8 34.6-8.4 22.8-40.6 22.8-117.8 0-24.8-4.4-59.6 13.4-71 7.6-5 26.4-0.8 73.4 79 22.2 37.8 39 82.2 39 82.2s3.6 8 9.2 11.4c5.8 3.4 13.6 2.4 13.6 2.4l105.4 0.6c0 0 31.6 3.8 36.8-10.6 5.4-15-11.8-50-54.8-107.4-70.6-94.2-78.6-85.4-19.8-139.8 56-52 67.6-77.4 69.6-80.6 22.8-38.4-26-41.4-26-41.4z" />
<glyph unicode="&#xeab0;" glyph-name="github" d="M512.008 947.358c-282.738 0-512.008-229.218-512.008-511.998 0-226.214 146.704-418.132 350.136-485.836 25.586-4.738 34.992 11.11 34.992 24.632 0 12.204-0.48 52.542-0.696 95.324-142.448-30.976-172.504 60.41-172.504 60.41-23.282 59.176-56.848 74.916-56.848 74.916-46.452 31.778 3.51 31.124 3.51 31.124 51.4-3.61 78.476-52.766 78.476-52.766 45.672-78.27 119.776-55.64 149.004-42.558 4.588 33.086 17.852 55.68 32.506 68.464-113.73 12.942-233.276 56.85-233.276 253.032 0 55.898 20.004 101.574 52.76 137.428-5.316 12.9-22.854 64.972 4.952 135.5 0 0 43.006 13.752 140.84-52.49 40.836 11.348 84.636 17.036 128.154 17.234 43.502-0.198 87.336-5.886 128.256-17.234 97.734 66.244 140.656 52.49 140.656 52.49 27.872-70.528 10.35-122.6 5.036-135.5 32.82-35.856 52.694-81.532 52.694-137.428 0-196.654-119.778-239.95-233.79-252.624 18.364-15.89 34.724-47.046 34.724-94.812 0-68.508-0.596-123.644-0.596-140.508 0-13.628 9.222-29.594 35.172-24.566 203.322 67.776 349.842 259.626 349.842 485.768 0 282.78-229.234 511.998-511.992 511.998z" />
<glyph unicode="&#xeab7;" glyph-name="blogger" d="M957.796 576h-57.406c-35.166 0-65.988 29.742-68.39 64v0c0.004 182.668-147.258 320-331.19 320h-167.824c-183.812 0-332.856-148-332.986-330.666v-362.798c0-182.654 149.174-330.536 332.984-330.536h358.42c183.948 0 332.596 147.882 332.596 330.536v234.382c0 36.502-29.44 75.082-66.204 75.082zM320 704h192c35.2 0 64-28.8 64-64s-28.8-64-64-64h-192c-35.2 0-64 28.8-64 64s28.8 64 64 64zM704 192h-384c-35.2 0-64 28.8-64 64s28.8 64 64 64h384c35.2 0 64-28.8 64-64s-28.8-64-64-64z" />
<glyph unicode="&#xeaca;" glyph-name="linkedin2" d="M384 576h177.106v-90.782h2.532c24.64 44.194 84.958 90.782 174.842 90.782 186.946 0 221.52-116.376 221.52-267.734v-308.266h-184.61v273.278c0 65.184-1.334 149.026-96.028 149.026-96.148 0-110.82-70.986-110.82-144.292v-278.012h-184.542v576zM64 576h192v-576h-192v576zM256 736c0-53.019-42.981-96-96-96s-96 42.981-96 96c0 53.019 42.981 96 96 96s96-42.981 96-96z" />
<glyph unicode="&#xead2;" glyph-name="pinterest2" d="M512 960c-282.4 0-512-229.6-512-512s229.6-512 512-512 512 229.6 512 512-229.6 512-512 512zM512 4.4c-45.8 0-89.8 7-131.4 19.8 18 29.4 45.2 77.8 55.2 116.2 5.4 20.8 27.6 105.4 27.6 105.4 14.4-27.6 56.8-51 101.6-51 133.8 0 230.2 123 230.2 276 0 146.6-119.6 256.2-273.4 256.2-191.4 0-293-128.6-293-268.4 0-65 34.6-146 90-171.8 8.4-4 12.8-2.2 14.8 6 1.4 6.2 9 36.2 12.4 50.4 1 4.4 0.6 8.4-3 12.8-18.4 22.2-33 63.2-33 101.2 0 97.8 74 192.6 200.2 192.6 109 0 185.2-74.2 185.2-180.4 0-120-60.6-203.2-139.4-203.2-43.6 0-76.2 36-65.6 80.2 12.6 52.8 36.8 109.6 36.8 147.6 0 34-18.2 62.4-56.2 62.4-44.6 0-80.2-46-80.2-107.8 0-39.2 13.2-65.8 13.2-65.8s-44-185.8-52-220.4c-9-38.4-5.4-92.2-1.6-127.2-165 64.4-282 224.8-282 412.8 0 245 198.6 443.6 443.6 443.6s443.6-198.6 443.6-443.6c0-245-198.6-443.6-443.6-443.6z" />
</font>
</defs>
</svg>
